<?xml version="1.0" encoding="utf-8"?>
<!DOCTYPE svg PUBLIC "-//W3C//DTD SVG 1.1//EN" "http://www.w3.org/Graphics/SVG/1.1/DTD/svg11.dtd" [
	<!ENTITY ns_svg "http://www.w3.org/2000/svg">
	<!ENTITY ns_xlink "http://www.w3.org/1999/xlink">
]>
<svg version="1.1" 
     width="1920" 
     height="1200"
	 viewBox="0 0 1920 1200" 
	 overflow="visible" 
	 enable-background="new 0 0 1920 1200" 
	 xml:space="preserve">
<rect fill="#FFFF00" x="960" width="960" height="1200"/>
<rect fill="#00FFFF" width="960" height="1200"/>
<path fill="#FF00FF" d="M396.586,893.971c0,2.451,1.188,4.611,3.002,5.99c-1.566,0.629-2.982,1.547-4.154,2.717
	c-1.611-1.615-3.678-2.76-5.986-3.283c1.994-1.002,3.377-3.043,3.377-5.43c0-3.361-2.73-6.094-6.098-6.094
	c-2.383,0-4.426,1.379-5.43,3.373c-0.822-3.646-3.273-6.641-6.537-8.268c1.824-1.555,3.012-3.84,3.012-6.426
	c0-2.727-1.311-5.127-3.313-6.672c1.236-0.594,2.369-1.359,3.324-2.318c0.9,0.955,1.955,1.734,3.117,2.361
	c-1.85,1.625-3.035,3.979-3.035,6.629c0,4.895,3.969,8.863,8.861,8.863c2.875,0,5.406-1.389,7.027-3.514
	c1.35,2.615,3.629,4.646,6.432,5.654C398.031,888.887,396.586,891.248,396.586,893.971z M396.682,806.885
	c0-2.527,1.264-4.748,3.18-6.098c-1.822-0.691-3.418-1.807-4.701-3.229c-0.768,0.803-1.662,1.465-2.631,2.023
	c2.156,1.715,3.566,4.33,3.566,7.303c0,2.836-1.285,5.344-3.273,7.061c1.039,0.613,1.975,1.363,2.783,2.252
	c1.271-1.342,2.859-2.354,4.637-2.98C398.113,811.902,396.682,809.568,396.682,806.885z M514.695,836.982
	c0.648-1.551,1.609-2.934,2.799-4.088c-0.965-0.965-1.732-2.105-2.334-3.35c-1.539,1.912-3.867,3.16-6.514,3.16
	c-3.484,0-6.473-2.121-7.746-5.139c-0.783,2.305-2.34,4.238-4.387,5.48c2.391,1.459,4.143,3.844,4.705,6.689
	c0.877-3.295,3.854-5.73,7.428-5.73C511.113,834.006,513.283,835.182,514.695,836.982z M344.996,754.631
	c0,3.807,3.088,6.893,6.895,6.893c3.406,0,6.217-2.477,6.775-5.723c0.512,4.654,3.939,8.43,8.455,9.365
	c-2.932,0.932-5.068,3.643-5.068,6.885c0,3.5,2.484,6.426,5.787,7.104c-4.166,0.592-7.512,3.611-8.586,7.6
	c-1.109-3.006-3.971-5.16-7.363-5.16c-2.521,0-4.742,1.205-6.184,3.053c-1.252-2.91-3.598-5.24-6.521-6.463
	c1.844-1.418,3.055-3.625,3.055-6.133c0-4.289-3.479-7.77-7.766-7.77c-4.289,0-7.766,3.48-7.766,7.77
	c0,2.504,1.209,4.711,3.055,6.133c-1.488,0.617-2.83,1.525-3.949,2.648c-1.102-1.117-2.414-2.021-3.875-2.652
	c1.807-1.441,2.988-3.639,2.988-6.129c0-2.832-1.508-5.293-3.748-6.682c2.439-0.939,4.453-2.68,5.768-4.904
	c1.748,2.254,4.453,3.729,7.527,3.729c5.279,0,9.563-4.281,9.563-9.563c0-5.023-3.891-9.1-8.813-9.488
	c4.063-0.383,7.254-3.766,7.254-7.928c0-3.063-1.738-5.693-4.264-7.035c1.584-0.57,3.01-1.465,4.164-2.646
	c2.26,2.775,5.656,4.58,9.512,4.58c4.082,0,7.678-2.008,9.916-5.072c1.898,1.967,4.553,3.199,7.502,3.199
	c5.768,0,10.445-4.678,10.445-10.441c0-2.953-1.234-5.602-3.199-7.502c1.15-0.848,2.174-1.857,2.971-3.043
	c1.818,1.904,4.365,3.1,7.199,3.1c5.51,0,9.977-4.465,9.977-9.975c0-3.893-2.254-7.229-5.51-8.873
	c1.576-0.826,2.891-2.055,3.807-3.576c1.771,3.256,5.18,5.49,9.145,5.49c4.641,0,8.531-3.047,9.893-7.232
	c1.254,2.914,4.148,4.961,7.525,4.961c2.539,0,4.781-1.182,6.281-2.996c0.615,1.313,1.422,2.514,2.436,3.525
	c-1.58,1.582-2.703,3.604-3.238,5.848c-1.035-1.984-3.09-3.35-5.479-3.35c-3.428,0-6.205,2.777-6.205,6.203s2.777,6.205,6.205,6.205
	c2.389,0,4.441-1.367,5.479-3.352c0.658,2.766,2.254,5.141,4.428,6.832c-1.438,1.395-2.467,3.189-2.953,5.203
	c-1.037-2.85-3.748-4.896-6.953-4.896c-4.102,0-7.428,3.328-7.428,7.428c0,4.098,3.326,7.424,7.428,7.424
	c3.209,0,5.916-2.047,6.953-4.896c0.555,2.303,1.848,4.287,3.613,5.746c-1.676,1.262-3.004,2.947-3.787,4.928
	c-1.414-2.268-3.912-3.789-6.779-3.789c-4.42,0-8.006,3.582-8.006,8.004c0,3.387,2.113,6.266,5.088,7.436
	c-1.775,0.52-3.363,1.465-4.609,2.764c-1.367-1.869-3.236-3.334-5.426-4.193c1.838-1.371,3.043-3.541,3.043-6.006
	c0-4.148-3.363-7.512-7.508-7.512c-4.146,0-7.508,3.363-7.508,7.512c0,2.465,1.205,4.635,3.043,6.006
	c-2.092,0.816-3.875,2.199-5.225,3.947c-1.953-2.025-4.688-3.297-7.729-3.297c-3.592,0-6.754,1.777-8.707,4.484
	c-1.955-2.707-5.113-4.484-8.709-4.484c-5.541,0-10.051,4.205-10.643,9.588c-0.559-3.246-3.369-5.723-6.775-5.723
	C348.084,747.736,344.996,750.822,344.996,754.631z M397.732,702.379c0,3.543,2.869,6.412,6.41,6.412s6.41-2.869,6.41-6.412
	c0-3.537-2.869-6.41-6.41-6.41S397.732,698.842,397.732,702.379z M334.475,864.232c4.092,0,7.691,2.023,9.932,5.094
	c0.875-0.906,1.916-1.639,3.07-2.182c-2.832-1.564-4.773-4.545-4.773-8.008c0-2.836,1.309-5.336,3.322-7.021
	c-1.582-0.893-2.959-2.104-3.99-3.586c-1.867,2.072-4.549,3.402-7.561,3.402c-4.797,0-8.787-3.314-9.887-7.768
	c-0.482,1.484-1.375,2.76-2.563,3.719c4.322,1.912,7.346,6.223,7.346,11.254c0,3.396-1.375,6.477-3.604,8.701
	C327.998,865.613,331.072,864.232,334.475,864.232z M313.059,834.875c-2.23-0.842-4.131-2.338-5.436-4.295
	c-1.865,2.371-4.732,3.922-7.984,3.922c-4.986,0-9.123-3.582-10.012-8.313c-0.428,1.678-1.4,3.115-2.723,4.145
	c3.541,1.461,6.215,4.525,7.193,8.287c1.09-1.947,3.152-3.279,5.541-3.279c3.521,0,6.379,2.854,6.379,6.375
	c0,2.389-1.334,4.451-3.283,5.541c2.148,0.557,4.09,1.645,5.613,3.166c1.07-1.068,2.34-1.924,3.738-2.541
	c-1.805-1.461-2.984-3.662-2.984-6.166C309.102,838.787,310.703,836.26,313.059,834.875z M621.641,371.455
	c0,4.928,3.996,8.922,8.924,8.922c2.662,0,5.027-1.191,6.662-3.038c0.564,1.03,1.223,1.999,2.047,2.825
	c-1.049,1.05-1.887,2.298-2.504,3.668c-1.475-1.812-3.688-2.988-6.203-2.988c-3.297,0-6.125,1.99-7.359,4.833
	c-1.365-4.284-5.326-7.406-10.061-7.406c-3.141,0-5.932,1.394-7.875,3.562c-0.994-1.347-2.268-2.451-3.734-3.278
	c2.064-1.69,3.404-4.225,3.404-7.099c0-5.089-4.125-9.215-9.209-9.215c-5.061,0-9.16,4.081-9.205,9.132
	c-0.043-4.266-3.344-7.721-7.529-8.069c4.828-0.36,8.646-4.345,8.646-9.266c0-2.842-1.297-5.355-3.303-7.068
	c1.59-0.929,2.969-2.173,3.984-3.702c1.826,2.034,4.453,3.338,7.402,3.338c4.428,0,8.137-2.896,9.445-6.884
	c1.244,3.199,4.334,5.472,7.973,5.472c2.607,0,4.91-1.186,6.482-3.019c1.227,2.407,3.193,4.347,5.635,5.518
	c-1.82,1.525-3.006,3.785-3.006,6.345c0,4.589,3.719,8.31,8.309,8.31c2.563,0,4.822-1.186,6.346-3.007
	c0.604,1.262,1.385,2.428,2.361,3.404c-0.824,0.826-1.482,1.795-2.047,2.827c-1.635-1.849-4-3.04-6.662-3.04
	C625.637,362.531,621.641,366.527,621.641,371.455z M602.141,354.037c0-3.541-2.871-6.411-6.412-6.411
	c-3.539,0-6.41,2.87-6.41,6.411s2.871,6.411,6.41,6.411C599.27,360.448,602.141,357.578,602.141,354.037z M619.693,371.455
	c0-3.614-2.93-6.546-6.545-6.546c-3.613,0-6.543,2.932-6.543,6.546s2.93,6.546,6.543,6.546
	C616.764,378,619.693,375.069,619.693,371.455z M630.566,400.635c2.443,0,4.506,1.563,5.295,3.732
	c0.412-2.626,1.615-4.99,3.412-6.787c-1.049-1.05-1.887-2.298-2.504-3.668c-1.475,1.81-3.688,2.986-6.203,2.986
	c-3.297,0-6.125-1.988-7.359-4.831c-0.623,1.947-1.771,3.634-3.305,4.912c2.883,2.097,4.777,5.471,4.777,9.308
	c0,4.74-2.865,8.802-6.951,10.575c1.256,0.845,2.25,2.029,2.887,3.416c1.43-4.143,5.322-7.139,9.951-7.139
	c2.979,0,5.658,1.242,7.578,3.225c0.354-0.473,0.713-0.949,1.129-1.368c-1.797-1.797-3-4.161-3.412-6.79
	c-0.789,2.172-2.852,3.73-5.295,3.73c-3.123,0-5.652-2.527-5.652-5.649C624.914,403.169,627.443,400.635,630.566,400.635z
	 M621.352,454.125c0.656-1.368,1.609-2.552,2.77-3.499c-2.234-1.52-3.863-3.822-4.592-6.5c-1.135,2.401-3.555,4.071-6.383,4.071
	c-2.438,0-4.586-1.232-5.859-3.11c-0.854,2.484-2.441,4.618-4.557,6.091c0.904,0.86,1.637,1.884,2.174,3.021
	c1.568-2.969,4.652-5.018,8.244-5.018C616.713,449.182,619.771,451.196,621.352,454.125z M445.684,772.051
	c0,3.873,2.076,7.238,5.16,9.119c-1.75,1.17-3.078,2.895-3.809,4.906c-1.322-3.141-4.43-5.352-8.061-5.352
	c-3.512,0-6.52,2.084-7.908,5.074c-1.477-3.826-5.162-6.549-9.506-6.549c-2.963,0-5.607,1.281-7.469,3.289
	c-2.193-3.143-5.824-5.211-9.949-5.211c-3.58,0-6.762,1.576-8.982,4.043c-2.123-2.217-5.092-3.604-8.4-3.613
	c3.141-0.023,5.676-2.566,5.676-5.707c0-3.156-2.555-5.713-5.711-5.713c-3.152,0-5.711,2.557-5.711,5.713
	c0,3.141,2.539,5.684,5.676,5.707c-3.918,0.01-7.367,1.957-9.482,4.924c-1.615-1.877-3.861-3.162-6.428-3.527
	c3.301-0.678,5.787-3.604,5.787-7.104c0-3.242-2.137-5.953-5.068-6.885c2.678-0.557,4.975-2.123,6.52-4.262
	c1.953,2.707,5.115,4.484,8.707,4.484c3.041,0,5.775-1.271,7.729-3.297c2.246,2.908,5.73,4.818,9.689,4.818
	c4.074,0,7.656-2.008,9.891-5.064c1.902,1.984,4.563,3.23,7.527,3.23c5.766,0,10.443-4.678,10.443-10.445
	c0-4.75-3.189-8.715-7.525-9.98c1.609-0.631,2.955-1.771,3.861-3.227c1.68,4.242,5.797,7.25,10.635,7.25
	c3.732,0,7.016-1.813,9.111-4.576c1.988,2.396,4.951,3.955,8.309,3.955c5.986,0,10.842-4.854,10.842-10.838
	c0-3.512-1.699-6.6-4.287-8.584c0.842-0.625,1.582-1.367,2.219-2.203c1.998,2.604,5.107,4.309,8.643,4.309
	c3.84,0,7.201-1.988,9.156-4.979c0.904,1.256,2.096,2.271,3.467,3.004c-2.947,1.682-4.961,4.816-4.961,8.453
	c0,3.309,1.658,6.221,4.176,7.986c-1.166,0.688-2.176,1.582-3.012,2.635c-2.043-2.652-5.217-4.383-8.824-4.383
	c-6.174,0-11.182,5.002-11.182,11.178c0,3.713,1.83,6.979,4.615,9.014c-0.813,0.633-1.543,1.365-2.145,2.207
	c-1.941-2.727-5.107-4.512-8.707-4.512C450.479,761.34,445.684,766.135,445.684,772.051z M427.607,772.051
	c0-3.346-2.707-6.055-6.047-6.055c-3.344,0-6.051,2.709-6.051,6.055c0,3.34,2.707,6.047,6.051,6.047
	C424.9,778.098,427.607,775.391,427.607,772.051z M445.643,772.045c0-3.68-2.984-6.662-6.664-6.662
	c-3.682,0-6.666,2.982-6.666,6.662c0,3.682,2.984,6.668,6.666,6.668C442.658,778.713,445.643,775.727,445.643,772.045z
	 M578.314,714.244c2.479,0,4.555,1.633,5.27,3.873c0.373-2.723,1.584-5.18,3.438-7.029c-1.268-1.268-2.215-2.83-2.838-4.551
	c-1.303,1.842-3.439,3.053-5.869,3.053c-3.648,0-6.629-2.723-7.109-6.236c-0.299,3.189-1.986,5.971-4.506,7.668
	c2.842,1.885,4.727,5.105,4.727,8.777c0,3.582-1.797,6.732-4.529,8.637c0.6,0.412,1.148,0.891,1.65,1.414
	c1.938-2.566,4.842-4.32,8.184-4.754c-2.291-0.684-3.973-2.783-3.973-5.297C572.758,716.729,575.244,714.244,578.314,714.244z
	 M584.404,689.797c-1.428,1.801-3.611,2.977-6.09,2.977c-3.664,0-6.713-2.531-7.559-5.934c-0.531,2.803-2.227,5.168-4.561,6.629
	c2.779,1.654,4.693,4.549,5.01,7.938c0.48-3.516,3.461-6.236,7.109-6.236c2.43,0,4.566,1.209,5.869,3.051
	c0.623-1.719,1.57-3.283,2.838-4.549C585.918,692.566,585.027,691.252,584.404,689.797z M605.117,528.208
	c0,2.516,1.18,4.73,2.988,6.205c-4.279,1.927-7.275,6.213-7.275,11.215c0,3.396,1.379,6.478,3.609,8.708
	c-1.979,1.975-3.225,4.64-3.494,7.583c-0.518-2.41-2.654-4.215-5.213-4.215c-2.949,0-5.34,2.39-5.34,5.339s2.391,5.339,5.34,5.339
	c2.559,0,4.695-1.81,5.213-4.219c0.27,2.947,1.516,5.608,3.494,7.587c-0.836,0.837-1.506,1.825-2.074,2.868
	c-1.625-1.847-3.98-3.033-6.633-3.033c-4.902,0-8.877,3.975-8.877,8.872c0,4.9,3.975,8.875,8.877,8.875
	c2.652,0,5.008-1.188,6.633-3.034c0.568,1.044,1.238,2.032,2.074,2.868c-1.957,1.955-3.197,4.587-3.484,7.497
	c-0.553-2.38-2.676-4.162-5.223-4.162c-2.971,0-5.375,2.406-5.375,5.377c0,2.967,2.404,5.372,5.375,5.372
	c2.547,0,4.67-1.781,5.223-4.162c0.287,2.91,1.527,5.542,3.484,7.498c-1.391,1.389-2.395,3.133-2.994,5.055
	c-1.209-1.891-3.311-3.146-5.717-3.146c-3.752,0-6.797,3.049-6.797,6.801c0,3.756,3.045,6.797,6.797,6.797
	c2.406,0,4.51-1.256,5.717-3.141c0.6,1.918,1.604,3.66,2.994,5.051c-0.992,0.992-1.779,2.174-2.389,3.453
	c-1.516-1.818-3.768-3-6.318-3c-4.563,0-8.26,3.695-8.26,8.258c0,3.826,2.615,7.012,6.145,7.953
	c-4.342,0.963-7.594,4.828-7.594,9.463c0,3.662,2.055,6.814,5.049,8.467c-2.752,1.436-4.758,4.068-5.301,7.23
	c-0.781-3.402-3.816-5.949-7.457-5.949c-4.236,0-7.668,3.434-7.668,7.666c0,4.24,3.432,7.668,7.668,7.668
	c3.641,0,6.676-2.541,7.457-5.947c0.375,2.178,1.434,4.115,2.959,5.58c-1.896,1.313-3.408,3.139-4.326,5.281
	c-1.428-1.799-3.611-2.977-6.09-2.977c-3.664,0-6.713,2.533-7.559,5.936c-0.59-3.123-2.637-5.707-5.402-7.086
	c3.047-1.607,5.143-4.77,5.143-8.455c0-4.039-2.498-7.479-6.033-8.895c3.33-1.395,5.674-4.682,5.674-8.52
	c0-4.451-3.148-8.16-7.34-9.037c3.84-0.867,6.709-4.281,6.709-8.383c0-4.752-3.852-8.609-8.605-8.609
	c-3.391,0-6.293,1.975-7.699,4.826c-0.859-2.213-2.451-4.025-4.477-5.207c2.131-1.334,3.705-3.436,4.352-5.93
	c1.061,3.324,4.141,5.754,7.818,5.754c4.557,0,8.252-3.695,8.252-8.248c0-4.557-3.695-8.244-8.252-8.244
	c-3.676,0-6.756,2.422-7.818,5.748c-0.678-2.613-2.379-4.787-4.66-6.1c2.508-1.408,4.381-3.813,4.99-6.712
	c0.928,3.283,3.914,5.701,7.488,5.701c4.318,0,7.816-3.496,7.816-7.809c0-4.317-3.498-7.813-7.816-7.813
	c-3.578,0-6.561,2.417-7.488,5.701c-0.688-3.269-2.953-5.961-5.965-7.243c2.986-1.469,5.061-4.512,5.061-8.065
	c0-4.539-3.365-8.258-7.732-8.89c4.166-0.624,7.367-4.188,7.367-8.524c0-4.026-2.754-7.371-6.473-8.343
	c4.111-0.988,7.172-4.664,7.172-9.076c0-4.099-2.65-7.541-6.316-8.808c3.557-1.26,6.123-4.618,6.123-8.606
	c0-4.847-3.777-8.776-8.543-9.099c4.334-0.325,7.76-3.904,7.76-8.32c0-4.63-3.75-8.38-8.379-8.38c-2.998,0-5.605,1.585-7.088,3.949
	c-0.883-2.056-2.363-3.78-4.215-4.986c2.205-1.688,3.672-4.249,3.908-7.18c0.414,3.738,3.547,6.655,7.393,6.655
	c4.127,0,7.475-3.349,7.475-7.475c0-4.128-3.348-7.475-7.475-7.475c-3.846,0-6.979,2.917-7.393,6.653
	c-0.299-3.667-2.525-6.768-5.693-8.275c3.004-1.569,5.078-4.674,5.088-8.298c0.012,4.411,3.586,7.98,8,7.98
	c4.42,0,8.006-3.581,8.006-8.004c0-4.422-3.586-8.003-8.006-8.003c-4.414,0-7.988,3.569-8,7.979
	c-0.012-4.647-3.398-8.48-7.838-9.234c3.838-0.738,6.736-4.106,6.736-8.158c0-4.595-3.723-8.319-8.318-8.319
	c-4.594,0-8.316,3.725-8.316,8.319c0,4.054,2.9,7.42,6.736,8.158c-3.238,0.551-5.914,2.734-7.127,5.693
	c-1.123-2.736-3.504-4.808-6.418-5.54c3.662-1.008,6.367-4.327,6.367-8.312c0-4.781-3.875-8.658-8.656-8.658
	c-4.783,0-8.658,3.877-8.658,8.658c0,3.982,2.703,7.302,6.367,8.312c-4.09,1.025-7.131,4.697-7.131,9.105
	c0,3.196,1.602,6.01,4.035,7.713c-2.5,1.392-4.385,3.695-5.23,6.482c-1.213-2.549-3.791-4.325-6.801-4.325
	c-4.168,0-7.549,3.38-7.549,7.548c0,3.25,2.07,5.998,4.951,7.062c-4.65,1.163-8.111,5.341-8.111,10.354
	c0,3.013,1.256,5.728,3.256,7.674c-2.852,2.186-4.723,5.56-4.83,9.404c-0.178-2.693-2.395-4.829-5.133-4.829
	c-2.854,0-5.168,2.315-5.168,5.17s2.314,5.17,5.168,5.17c2.738,0,4.955-2.139,5.137-4.831c0.088,3.264,1.42,6.217,3.572,8.368
	c-0.604,0.603-1.131,1.275-1.598,1.994c-1.789-1.892-4.301-3.087-7.111-3.087c-5.414,0-9.805,4.389-9.805,9.804
	c0,2.806,1.195,5.323,3.088,7.111c-0.746,0.486-1.439,1.043-2.061,1.677c-2.213-2.213-5.266-3.583-8.641-3.583
	c-5.012,0-9.311,3.03-11.189,7.348c-1.453-1.856-3.691-3.071-6.23-3.071c-4.379,0-7.932,3.553-7.932,7.934
	c0,2.494,1.18,4.697,2.982,6.151c-1.408,0.618-2.686,1.482-3.758,2.556c-1.707-1.711-3.92-2.899-6.389-3.372
	c2.061-0.897,3.502-2.945,3.502-5.335c0-3.217-2.605-5.821-5.82-5.821s-5.822,2.604-5.822,5.821c0,2.39,1.441,4.438,3.502,5.335
	c-2.484,0.473-4.705,1.677-6.412,3.401c-2.225-2.227-5.297-3.601-8.686-3.601c-4.088,0-7.682,2.022-9.914,5.093
	c-0.824-0.86-1.799-1.555-2.873-2.089c2.838-1.62,4.775-4.64,4.775-8.14c0-5.197-4.209-9.406-9.406-9.406
	c-4.123,0-7.59,2.674-8.857,6.368c-1.254-3.533-4.594-6.077-8.559-6.077c-5.035,0-9.115,4.079-9.115,9.115
	c0,3.604,2.115,6.695,5.154,8.174c-2.674,1.147-4.709,3.435-5.59,6.24c-1.213-3.174-4.266-5.438-7.867-5.438
	c-2.584,0-4.865,1.182-6.412,3.01c-0.6-1.21-1.352-2.334-2.297-3.279c1.129-1.128,2.035-2.48,2.656-3.973
	c1.414,1.799,3.586,2.977,6.053,2.977c4.26,0,7.717-3.455,7.717-7.711c0-4.263-3.457-7.715-7.717-7.715
	c-2.467,0-4.639,1.181-6.053,2.98c-0.924-2.221-2.482-4.115-4.445-5.451c1.904-1.825,3.105-4.387,3.105-7.229
	c0-4.923-3.555-8.998-8.234-9.845c3.441-0.81,6.008-3.884,6.008-7.573c0-2.479-1.176-4.658-2.977-6.085
	c2.371-1.012,4.324-2.76,5.656-4.936c1.73,1.876,4.188,3.069,6.939,3.069c5.229,0,9.467-4.238,9.467-9.468
	c0-2.754-1.193-5.211-3.07-6.938c0.846-0.519,1.643-1.101,2.336-1.802c2.223,2.227,5.293,3.601,8.686,3.601
	c5.971,0,10.936-4.266,12.041-9.914c0.91,2.069,2.971,3.514,5.375,3.514c3.248,0,5.881-2.63,5.881-5.878
	c0-2.382-1.424-4.422-3.457-5.345c3.459-0.691,6.357-2.849,8.111-5.778c1.713,1.87,4.146,3.063,6.883,3.063
	c5.168,0,9.357-4.188,9.357-9.356c0-2.734-1.193-5.174-3.064-6.885c1.135-0.679,2.139-1.535,2.998-2.531
	c2.07,2.103,4.945,3.409,8.127,3.409c4.748,0,8.814-2.903,10.533-7.034c1.451,2.278,3.982,3.8,6.885,3.8
	c4.514,0,8.176-3.661,8.176-8.176c0-2.628-1.262-4.941-3.189-6.436c1.818-0.828,3.377-2.101,4.578-3.671
	c1.07,1.147,2.371,2.066,3.854,2.659c-2.664,1.436-4.492,4.213-4.492,7.447c0,4.689,3.799,8.487,8.488,8.487
	s8.488-3.798,8.488-8.487c0-3.234-1.828-6.012-4.492-7.445c2.674-1.071,4.818-3.167,5.928-5.815
	c1.471,2.643,4.258,4.451,7.496,4.451c4.756,0,8.609-3.853,8.609-8.608c0-4.753-3.854-8.609-8.609-8.609
	c-3.238,0-6.025,1.81-7.496,4.453c-0.797-1.905-2.131-3.523-3.809-4.688c1.613-1.153,2.893-2.742,3.652-4.606
	c1.441,2.776,4.309,4.689,7.65,4.689c4.785,0,8.658-3.874,8.658-8.654c0-4.781-3.873-8.662-8.658-8.662
	c-3.342,0-6.209,1.92-7.65,4.693c-0.838-2.061-2.311-3.775-4.166-4.947c1.982-1.307,3.439-3.297,4.129-5.624
	c1.17,3.122,4.158,5.354,7.689,5.354c4.549,0,8.236-3.685,8.236-8.234c0-4.548-3.688-8.235-8.236-8.235
	c-3.531,0-6.52,2.234-7.689,5.357c-0.799-2.695-2.658-4.908-5.123-6.166c2.289-1.262,4.002-3.408,4.664-6
	c1.031,3.543,4.27,6.151,8.146,6.151c4.707,0,8.525-3.817,8.525-8.524c0-4.709-3.818-8.523-8.525-8.523
	c-3.879,0-7.115,2.606-8.146,6.153c-0.777-3.033-2.975-5.477-5.865-6.577c3.359-1.353,5.736-4.626,5.736-8.469
	c0-3.986-2.563-7.337-6.119-8.589c3.684-1.262,6.348-4.717,6.348-8.829c0-4.469-3.137-8.193-7.324-9.128
	c3.732-0.921,6.516-4.269,6.516-8.287c0-4.729-3.834-8.562-8.561-8.562c-3.602,0-6.672,2.228-7.936,5.376
	c-1.221-3.638-4.443-6.314-8.377-6.751c3.668-0.539,6.492-3.668,6.492-7.484c0-4.193-3.402-7.593-7.6-7.593
	c-2.988,0-5.545,1.741-6.785,4.25c-0.699-2.215-2.047-4.122-3.848-5.506c2.535-2.008,4.193-5.079,4.193-8.567
	c0-4.004-2.166-7.472-5.369-9.387c2.533-1.772,4.197-4.701,4.197-8.03c0-4.676-3.275-8.571-7.656-9.551
	c3.473-0.95,6.039-4.094,6.039-7.867c0-4.521-3.666-8.186-8.186-8.186c-2.729,0-5.127,1.347-6.615,3.397
	c-0.93-2.089-2.436-3.857-4.33-5.1c2.125-1.83,3.5-4.505,3.5-7.529c0-5.509-4.465-9.974-9.973-9.974
	c-4.277,0-7.895,2.706-9.313,6.49c-1.35-3.141-4.467-5.343-8.105-5.343c-4.875,0-8.824,3.952-8.824,8.828
	c0,2.688,1.225,5.066,3.121,6.686c-1.324,0.706-2.496,1.636-3.473,2.759c-2.088-2.158-5.004-3.51-8.242-3.51
	c-4.092,0-7.666,2.159-9.697,5.387c-1.809-2.286-4.574-3.781-7.719-3.781c-5.455,0-9.879,4.421-9.879,9.876
	c0,2.82,1.199,5.348,3.092,7.148c-0.801,0.531-1.518,1.165-2.172,1.861c-2.162-2.173-5.152-3.522-8.459-3.522
	c-4.41,0-8.221,2.421-10.285,5.979c-1.709-2.051-4.252-3.382-7.131-3.382c-5.152,0-9.33,4.178-9.33,9.333
	c0,2.729,1.193,5.164,3.061,6.872c-0.881,0.524-1.719,1.114-2.439,1.838c-1.803-1.807-4.184-3.01-6.822-3.418
	c2.182-0.778,3.752-2.842,3.752-5.292c0-3.117-2.523-5.639-5.639-5.639c-3.113,0-5.639,2.522-5.639,5.639
	c0,2.45,1.572,4.514,3.754,5.292c-2.641,0.408-5.018,1.611-6.822,3.418c-1.686-1.687-3.858-2.88-6.286-3.364
	c2.036-0.926,3.457-2.965,3.457-5.346c0-3.249-2.63-5.88-5.878-5.88s-5.881,2.632-5.881,5.88c0,2.381,1.422,4.419,3.459,5.346
	c-3.89,0.774-7.087,3.393-8.721,6.893c-1.5-1.814-3.738-2.995-6.275-2.995c-4.515,0-8.176,3.657-8.176,8.173
	c0,2.538,1.181,4.777,2.998,6.277c-1.896,0.881-3.519,2.226-4.74,3.896c-1.898-1.968-4.553-3.201-7.501-3.201
	c-5.769,0-10.446,4.674-10.446,10.443c0,2.951,1.232,5.604,3.199,7.502c-0.51,0.374-1.016,0.761-1.463,1.208
	c-2.229-2.228-5.307-3.607-8.707-3.607c-3.459,0-6.572,1.434-8.809,3.73c-2.201-2.207-5.245-3.575-8.609-3.575
	c-3.453,0-6.556,1.458-8.769,3.773c-2.194-2.261-5.252-3.673-8.646-3.673c-3.459,0-6.557,1.474-8.755,3.803
	c-2.185-2.289-5.251-3.732-8.664-3.732c-5.284,0-9.722,3.442-11.317,8.188c-1.273-2.04-3.52-3.407-6.1-3.407
	c-3.984,0-7.211,3.227-7.211,7.21c0,2.428,1.211,4.563,3.054,5.871c-1.725,0.621-3.292,1.573-4.56,2.847
	c-2.227-2.229-5.303-3.605-8.701-3.605c-3.888,0-7.312,1.837-9.567,4.652c-1.992-2.043-4.768-3.324-7.851-3.324
	c-4.467,0-8.295,2.679-10.006,6.51c-1.521-2.516-4.254-4.214-7.408-4.214c-4.796,0-8.682,3.886-8.682,8.679
	c0,3.171,1.714,5.915,4.252,7.431c-3.831,1.701-6.51,5.524-6.51,9.987c0,4.207,2.4,7.813,5.88,9.645
	c-2.54,1.659-4.227,4.512-4.227,7.771c0,4.186,2.786,7.678,6.589,8.842c-3.662,1.151-6.337,4.535-6.337,8.575
	c0,4.988,4.045,9.034,9.034,9.034c2.72,0,5.134-1.229,6.79-3.135c0.691,1.244,1.581,2.345,2.646,3.271
	c-1.301,1.26-2.27,2.833-2.864,4.589c-1.29-2.315-3.733-3.898-6.571-3.898c-4.178,0-7.56,3.383-7.56,7.56
	c0,4.172,3.382,7.556,7.56,7.556c2.838,0,5.282-1.583,6.571-3.897c0.754,2.229,2.149,4.142,3.996,5.521
	c-2.37,1.975-3.91,4.908-3.91,8.235c0,3.921,2.12,7.321,5.258,9.201c-2.646,1.773-4.39,4.792-4.39,8.217
	c0,4.467,2.984,8.199,7.052,9.426c-3.297,1.174-5.674,4.292-5.674,7.991c0,4.701,3.81,8.512,8.51,8.512
	c2.839,0,5.333-1.401,6.88-3.537c0.807,1.706,2.012,3.171,3.5,4.303c-1.76,1.521-3.049,3.567-3.542,5.93
	c-0.937-2.899-3.626-5.012-6.839-5.012c-3.986,0-7.219,3.232-7.219,7.221s3.232,7.221,7.219,7.221c3.213,0,5.902-2.112,6.839-5.012
	c0.565,2.711,2.155,5.035,4.335,6.587c-2.28,1.653-3.853,4.178-4.276,7.093c-0.701-3.171-3.516-5.546-6.898-5.546
	c-3.906,0-7.075,3.17-7.075,7.075c0,3.908,3.169,7.076,7.075,7.076c3.382,0,6.199-2.375,6.898-5.544
	c0.567,3.905,3.223,7.106,6.819,8.441c-2.745,1.366-4.646,4.172-4.646,7.443c0,4.608,3.738,8.343,8.345,8.343
	c2.567,0,4.833-1.183,6.365-3.006c1.133,2.341,2.979,4.244,5.262,5.471c-1.845,1.618-3.033,3.963-3.033,6.612
	c0,4.875,3.951,8.826,8.826,8.826s8.826-3.951,8.826-8.826c0-2.649-1.189-4.994-3.033-6.612c1.064-0.575,2.066-1.25,2.915-2.099
	c1.388,1.39,3.132,2.394,5.05,2.994c-1.883,1.209-3.139,3.31-3.139,5.713c0,3.755,3.044,6.798,6.798,6.798
	c3.755,0,6.8-3.043,6.8-6.798c0-2.403-1.258-4.506-3.143-5.713c1.92-0.603,3.662-1.604,5.051-2.994
	c1.908,1.91,4.458,3.132,7.283,3.463c-2.318,0.632-4.031,2.732-4.031,5.248c0,3.009,2.444,5.457,5.459,5.457
	c3.012,0,5.457-2.448,5.457-5.457c0-2.516-1.713-4.616-4.03-5.248c2.823-0.331,5.37-1.553,7.28-3.463
	c2.229,2.23,5.307,3.608,8.707,3.608c3.402,0,6.48-1.378,8.711-3.608c2.227,2.23,5.308,3.608,8.707,3.608
	c3.4,0,6.479-1.378,8.707-3.608c1.623,1.624,3.707,2.778,6.028,3.296c-1.996,0.992-3.382,3.033-3.382,5.415
	c0,3.345,2.715,6.062,6.063,6.062s6.063-2.717,6.063-6.062c0-2.382-1.389-4.423-3.385-5.415c2.323-0.518,4.406-1.67,6.03-3.296
	c1.407,1.407,3.179,2.422,5.134,3.021c-1.894,1.19-3.161,3.285-3.161,5.69c0,3.717,3.017,6.733,6.734,6.733
	c3.724,0,6.737-3.017,6.737-6.733c0-2.405-1.268-4.5-3.164-5.69c1.957-0.599,3.729-1.613,5.137-3.021c1,1,2.19,1.796,3.484,2.406
	c-1.817,1.51-3,3.758-3,6.305c0,4.54,3.683,8.222,8.227,8.222c3.38,0,6.277-2.042,7.541-4.961c0.676,2.045,1.945,3.797,3.629,5.063
	c-2.891,1.99-4.79,5.314-4.79,9.091c0,4.81,3.095,8.858,7.386,10.366c-2.555,1.327-4.32,3.969-4.32,7.048
	c0,4.404,3.566,7.972,7.969,7.972c2.506,0,4.713-1.182,6.174-2.987c0.619,1.395,1.473,2.662,2.535,3.725
	c-0.814,0.817-1.467,1.776-2.027,2.792c-1.641-1.853-4.012-3.044-6.682-3.044c-4.486,0-8.17,3.308-8.822,7.613
	c-0.652-4.178-4.233-7.381-8.596-7.381c-4.821,0-8.729,3.908-8.729,8.728c0,2.636,1.192,4.971,3.039,6.571
	c-1.871,0.982-3.469,2.393-4.615,4.154c-1.785-1.896-4.301-3.096-7.109-3.096c-5.408,0-9.793,4.385-9.793,9.791
	c0,2.805,1.195,5.318,3.087,7.104c-0.72,0.469-1.399,0.998-2.004,1.604c-1.486-1.484-3.372-2.541-5.455-3.119
	c1.929-1.123,3.24-3.195,3.24-5.588c0-3.588-2.907-6.496-6.494-6.496s-6.497,2.908-6.497,6.496c0,2.393,1.312,4.465,3.242,5.588
	c-2.084,0.578-3.969,1.635-5.455,3.119c-2.229-2.23-5.307-3.605-8.707-3.605c-3.403,0-6.484,1.379-8.713,3.615
	c-2.227-2.23-5.303-3.607-8.703-3.607c-3.398,0-6.475,1.377-8.701,3.607c-0.951-0.955-2.079-1.711-3.3-2.311
	c1.827-1.547,3.011-3.828,3.011-6.406c0-4.654-3.772-8.43-8.426-8.43c-2.584,0-4.863,1.186-6.41,3.01
	c-1.601-3.246-4.565-5.684-8.174-6.533c1.982-1.033,3.349-3.078,3.349-5.463c0-3.416-2.771-6.184-6.186-6.184
	c-3.413,0-6.18,2.768-6.18,6.184c0,2.386,1.364,4.426,3.343,5.463c-2.676,0.631-4.982,2.143-6.664,4.205
	c-1.153-1.178-2.578-2.072-4.161-2.643c2.52-1.348,4.25-3.973,4.25-7.026c0-4.422-3.583-8.003-8.003-8.003
	c-3.219,0-5.975,1.908-7.246,4.648c-0.994-3.015-3.242-5.443-6.17-6.619c2.66-1.431,4.488-4.211,4.488-7.447
	c0-4.686-3.801-8.488-8.49-8.488c-4.689,0-8.491,3.803-8.491,8.488c0,3.236,1.829,6.011,4.489,7.447
	c-1.408,0.567-2.664,1.412-3.703,2.48c-1.138-1.471-2.585-2.665-4.262-3.502c1.825-1.553,3.012-3.841,3.012-6.426
	c0-4.671-3.79-8.461-8.463-8.461c-2.583,0-4.87,1.186-6.421,3.01c-0.78-1.564-1.878-2.929-3.221-4.029
	c2.059-2.018,3.347-4.825,3.347-7.934c0-6.143-4.979-11.117-11.119-11.117c-3.115,0-5.92,1.286-7.938,3.345
	c-0.258-0.311-0.486-0.651-0.772-0.935c2.229-2.23,3.606-5.312,3.606-8.708c0-4.055-1.984-7.618-5.006-9.862
	c1.979-1.918,3.219-4.587,3.219-7.558c0-3.256-1.51-6.13-3.833-8.062c2.917-2.093,4.837-5.492,4.837-9.355
	c0-3.212-1.319-6.11-3.438-8.203c2.567-2.256,4.221-5.527,4.221-9.215c0-6.124-4.484-11.166-10.339-12.115
	c2.155-0.805,3.699-2.868,3.699-5.301c0-3.135-2.542-5.674-5.677-5.674c-2.434,0-4.495,1.539-5.298,3.695
	c-0.425-2.604-1.624-4.945-3.41-6.729c2.23-2.23,3.606-5.307,3.606-8.709c0-3.401-1.376-6.48-3.606-8.711
	c2.23-2.227,3.606-5.306,3.606-8.707c0-5.473-3.595-10.06-8.532-11.66c1.87-1.234,3.11-3.349,3.11-5.755
	c0-3.809-3.087-6.894-6.892-6.894c-2.41,0-4.524,1.238-5.758,3.108c-0.606-1.87-1.595-3.567-2.953-4.926
	c2.23-2.227,3.609-5.308,3.609-8.709c0-3.4-1.38-6.479-3.609-8.707c2.229-2.23,3.609-5.308,3.609-8.71
	c0-3.868-1.819-7.275-4.609-9.533c2.049-2.003,3.327-4.79,3.327-7.883c0-4.81-3.095-8.858-7.388-10.371
	c2.557-1.328,4.323-3.967,4.323-7.047c0-4.401-3.567-7.968-7.971-7.968c-2.504,0-4.711,1.179-6.17,2.983
	c-0.62-1.394-1.474-2.66-2.537-3.723c1.636-1.635,2.801-3.738,3.311-6.081c0.979,2.004,3.018,3.397,5.396,3.397
	c3.329,0,6.026-2.698,6.026-6.024c0-3.329-2.697-6.027-6.026-6.027c-2.378,0-4.417,1.392-5.396,3.395
	c-0.51-2.344-1.675-4.441-3.311-6.078c1.586-1.586,2.71-3.615,3.246-5.871c1.031,1.978,3.075,3.345,5.461,3.345
	c3.416,0,6.186-2.769,6.186-6.185c0-3.414-2.77-6.179-6.186-6.179c-2.386,0-4.43,1.365-5.461,3.345
	c-0.536-2.258-1.662-4.286-3.246-5.873c0.996-0.997,1.789-2.183,2.399-3.476c1.512,1.819,3.76,3.003,6.31,3.003
	c4.547,0,8.235-3.688,8.235-8.236c0-2.702-1.319-5.079-3.331-6.581c4.13-1.871,7.014-6.007,7.014-10.836
	c0-3.306-1.349-6.294-3.522-8.453c2.4-2.247,3.92-5.419,3.92-8.965c0-3.401-1.38-6.479-3.609-8.708
	c2.229-2.229,3.609-5.307,3.609-8.708s-1.378-6.48-3.609-8.709c1.91-1.908,3.134-4.458,3.465-7.281c0.63,2.317,2.73,4.03,5.247,4.03
	c3.012,0,5.457-2.443,5.457-5.457c0-2.519-1.715-4.616-4.034-5.247c6.123-0.712,10.89-5.856,10.89-12.17
	c0-3.402-1.376-6.48-3.606-8.709c2.23-2.229,3.606-5.308,3.606-8.709s-1.376-6.479-3.606-8.708c0.321-0.32,0.581-0.694,0.864-1.048
	c1.994,2.041,4.766,3.313,7.843,3.313c6.065,0,10.979-4.912,10.979-10.974c0-3.078-1.276-5.852-3.317-7.844
	c2.817-2.256,4.656-5.683,4.656-9.574c0-3.399-1.378-6.478-3.604-8.706c2.227,2.228,5.306,3.605,8.708,3.605
	c6.801,0,12.315-5.513,12.315-12.316c0-3.4-1.378-6.478-3.606-8.706c2.229,2.228,5.308,3.604,8.705,3.604
	c6.802,0,12.316-5.513,12.316-12.315c0-3.4-1.378-6.478-3.604-8.707c2.227,2.228,5.306,3.604,8.705,3.604
	c6.804,0,12.318-5.514,12.318-12.314c0-3.401-1.379-6.48-3.609-8.708c2.23,2.229,5.31,3.606,8.711,3.606
	c6.154,0,11.21-4.529,12.123-10.428c0.779,2.182,2.846,3.75,5.292,3.75c3.114,0,5.638-2.524,5.638-5.638
	c0-2.45-1.57-4.514-3.752-5.292c2.641-0.409,5.021-1.611,6.824-3.417c2.228,2.229,5.309,3.608,8.711,3.608
	c6.801,0,12.313-5.514,12.313-12.317c0-3.399-1.376-6.476-3.604-8.705c2.229,2.228,5.305,3.605,8.705,3.605
	c3.402,0,6.48-1.379,8.711-3.608c2.227,2.229,5.308,3.608,8.707,3.608c3.4,0,6.479-1.379,8.707-3.608
	c2.23,2.229,5.309,3.608,8.71,3.608c3.532,0,6.695-1.507,8.941-3.89c2.165,2.177,5.159,3.527,8.475,3.527
	c5.648,0,10.349-3.927,11.602-9.19c1.037,2.179,3.24,3.697,5.819,3.697c3.533,0,6.396-2.843,6.449-6.366
	c0.051,6.018,4.938,10.883,10.965,10.883c3.557,0,6.682-1.718,8.689-4.336c2.01,2.641,5.154,4.373,8.729,4.373
	c3.086,0,5.867-1.278,7.867-3.325c2.256,2.8,5.672,4.628,9.551,4.628c3.398,0,6.48-1.379,8.707-3.608
	c2.229,2.229,5.309,3.608,8.709,3.608c3.402,0,6.48-1.379,8.709-3.608c2.229,2.229,5.307,3.608,8.709,3.608
	c3.4,0,6.48-1.379,8.709-3.608c2.227,2.229,5.309,3.608,8.707,3.608c3.402,0,6.479-1.379,8.709-3.608
	c0.188,0.188,0.414,0.332,0.615,0.507c-2.117,2.09-3.436,4.99-3.436,8.2c0,6.37,5.162,11.531,11.529,11.531
	c3.209,0,6.109-1.318,8.201-3.436c2.258,2.568,5.529,4.222,9.217,4.222c3.398,0,6.48-1.379,8.707-3.608
	c1.205,1.206,2.672,2.132,4.289,2.757c-1.82,1.354-3.018,3.505-3.018,5.952c0,4.106,3.33,7.437,7.436,7.437
	c2.449,0,4.6-1.197,5.953-3.018c1.781,4.613,6.229,7.897,11.467,7.897c3.4,0,6.479-1.377,8.705-3.604
	c-2.227,2.229-3.604,5.307-3.604,8.707c0,6.8,5.514,12.314,12.314,12.314c3.402,0,6.48-1.377,8.709-3.604
	c-2.229,2.228-3.605,5.306-3.605,8.707c0,6.802,5.512,12.315,12.314,12.315c3.398,0,6.479-1.378,8.705-3.605
	c-2.227,2.229-3.605,5.307-3.605,8.707c0,6.803,5.514,12.316,12.318,12.316c3.4,0,6.477-1.377,8.705-3.604
	c-2.229,2.229-3.605,5.306-3.605,8.705c0,3.696,1.66,6.974,4.242,9.231c-2.119,2.087-3.434,4.981-3.434,8.187
	c0,6.355,5.15,11.506,11.506,11.506c3.207,0,6.104-1.314,8.188-3.43c0.182,0.207,0.328,0.439,0.523,0.633
	c-2.23,2.229-3.607,5.306-3.607,8.708c0,6.313,4.768,11.457,10.889,12.172c-2.318,0.631-4.031,2.728-4.031,5.245
	c0,3.015,2.445,5.457,5.459,5.457c2.516,0,4.615-1.711,5.244-4.029c0.332,2.823,1.557,5.374,3.463,7.281
	c-2.23,2.229-3.605,5.309-3.605,8.709c0,3.4,1.375,6.479,3.605,8.708c-2.23,2.229-3.605,5.309-3.605,8.709
	c0,5.158,3.178,9.563,7.676,11.396c-1.807,1.396-2.992,3.56-2.992,6.021c0,4.214,3.418,7.63,7.629,7.63
	c2.463,0,4.627-1.186,6.023-2.994c0.623,1.534,1.535,2.919,2.689,4.07c-2.23,2.23-3.609,5.309-3.609,8.71
	c0,3.401,1.379,6.479,3.609,8.71c-2.23,2.228-3.609,5.306-3.609,8.707c0,3.402,1.381,6.478,3.609,8.708
	c-2.229,2.229-3.609,5.307-3.609,8.707c0,3.508,1.482,6.655,3.836,8.896c-2.188,2.178-3.545,5.193-3.545,8.524
	c0,4.432,2.426,8.263,5.996,10.347c-2.006,1.713-3.303,4.226-3.303,7.068c0,4.921,3.818,8.905,8.646,9.266
	c-4.215,0.354-7.535,3.845-7.535,8.152c0,4.54,3.68,8.223,8.221,8.223c4.512,0,8.166-3.638,8.213-8.14
	c0.023,2.839,1.354,5.343,3.396,7.016c-2.156,1.215-3.893,3.054-4.943,5.306c-1.529-2.027-3.934-3.354-6.666-3.354
	c-4.623,0-8.371,3.746-8.371,8.366c0,4.623,3.748,8.369,8.371,8.369c2.732,0,5.137-1.331,6.664-3.356
	c1.176,2.516,3.195,4.537,5.711,5.721c-2.031,1.533-3.363,3.945-3.363,6.684c0,4.642,3.764,8.404,8.406,8.404
	c2.877,0,5.414-1.449,6.928-3.658c1.182,2.601,3.283,4.693,5.908,5.829c-2.201,1.479-3.654,3.99-3.654,6.845
	c0,4.548,3.688,8.235,8.234,8.235c3.322,0,6.166-1.979,7.467-4.81c0.645,1.856,1.775,3.463,3.26,4.689
	c-2.104,1.516-3.645,3.725-4.346,6.295c-1.135-2.401-3.555-4.068-6.383-4.068c-2.438,0-4.586,1.234-5.859,3.108
	c-1.379-4.011-4.734-7.091-8.939-8.009c2.033-0.977,3.445-3.037,3.445-5.441c0-3.351-2.715-6.063-6.061-6.063
	c-3.352,0-6.066,2.713-6.066,6.063c0,2.404,1.414,4.465,3.445,5.441c-3.221,0.705-5.955,2.67-7.684,5.356
	c-1.779-1.911-4.295-3.126-7.113-3.126c-5.383,0-9.746,4.36-9.746,9.743c0,4.567,3.154,8.366,7.393,9.426
	c-3.471,1.02-6.018,4.193-6.018,7.992c0,4.622,3.748,8.369,8.371,8.369c3.529,0,6.533-2.191,7.764-5.282
	c1.314,4.103,5.113,7.091,9.65,7.091c4.063,0,7.543-2.397,9.176-5.839c0.563,1.063,1.311,1.994,2.221,2.766
	c-3.553,2.081-5.967,5.896-5.967,10.313c0,3.32,1.354,6.327,3.535,8.498c-1.49,1.41-2.588,3.195-3.227,5.197
	c-1.221-1.878-3.33-3.126-5.734-3.126c-3.783,0-6.85,3.067-6.85,6.847c0,3.782,3.066,6.847,6.85,6.847
	c2.404,0,4.514-1.246,5.734-3.126c0.832,2.61,2.463,4.851,4.664,6.385c-1.928,1.848-3.139,4.435-3.139,7.313
	c0,4.753,3.275,8.706,7.682,9.814C607.457,521.655,605.117,524.643,605.117,528.208z M585.012,423.708
	c0-3.705-2.998-6.705-6.697-6.705s-6.697,3-6.697,6.705c0,3.699,2.998,6.699,6.697,6.699S585.012,427.407,585.012,423.708z
	 M570.988,406.288c0,4.049,3.277,7.327,7.326,7.327c4.047,0,7.324-3.278,7.324-7.327c0-4.046-3.277-7.329-7.324-7.329
	C574.266,398.958,570.988,402.242,570.988,406.288z M201.546,597.875c0-3.54-2.87-6.412-6.409-6.412
	c-3.542,0-6.412,2.872-6.412,6.412c0,3.543,2.87,6.411,6.412,6.411C198.676,604.285,201.546,601.418,201.546,597.875z
	 M169.205,580.458c0,4.701,3.812,8.511,8.513,8.511c3.201,0,5.955-1.786,7.408-4.4c1.62,3.941,5.488,6.72,10.013,6.72
	c3.266,0,6.159-1.475,8.147-3.761c1.099,1.436,2.513,2.608,4.158,3.412c-2.136,1.572-3.538,4.087-3.538,6.939
	c0,4.772,3.873,8.645,8.646,8.645s8.646-3.873,8.646-8.645c0-2.853-1.4-5.367-3.536-6.939c2.056-1.008,3.755-2.581,4.916-4.536
	c1.748,2.168,4.392,3.581,7.392,3.581c5.261,0,9.524-4.262,9.524-9.526c0-4.171-2.694-7.672-6.425-8.967
	c3.454-1.266,5.931-4.554,5.931-8.447c0-4.988-4.044-9.034-9.03-9.034s-9.031,4.046-9.031,9.034c0,3.894,2.479,7.182,5.932,8.447
	c-1.707,0.591-3.18,1.644-4.29,3.023c-1.558-2.616-4.085-4.563-7.104-5.343c2.293-1.097,3.888-3.415,3.888-6.128
	c0-3.761-3.048-6.808-6.812-6.808c-3.76,0-6.808,3.047-6.808,6.808c0,2.713,1.595,5.031,3.888,6.128
	c-2.57,0.662-4.781,2.168-6.347,4.219c-1.988-2.287-4.882-3.766-8.147-3.766c-4.524,0-8.393,2.777-10.013,6.719
	c-1.453-2.612-4.207-4.397-7.408-4.397C173.017,571.946,169.205,575.756,169.205,580.458z M153.502,580.458
	c0,3.757,3.045,6.8,6.797,6.8c3.755,0,6.801-3.043,6.801-6.8c0-3.75-3.046-6.798-6.801-6.798
	C156.547,573.66,153.502,576.708,153.502,580.458z M134.963,545.625c0,4.375,3.547,7.922,7.921,7.922
	c4.375,0,7.922-3.547,7.922-7.922c0-4.374-3.547-7.919-7.922-7.919C138.511,537.706,134.963,541.25,134.963,545.625z
	 M465.926,354.037c0,4.356,3.531,7.886,7.885,7.886s7.885-3.529,7.885-7.886c0-4.356-3.531-7.886-7.885-7.886
	S465.926,349.681,465.926,354.037z M481.961,371.455c0-4.5-3.646-8.15-8.15-8.15c-4.5,0-8.148,3.65-8.148,8.15
	s3.648,8.15,8.148,8.15C478.314,379.605,481.961,375.955,481.961,371.455z M432.07,493.374c0,3.815,3.094,6.906,6.904,6.906
	c3.814,0,6.908-3.091,6.908-6.906c0-3.813-3.094-6.906-6.908-6.906C435.164,486.467,432.07,489.56,432.07,493.374z M448.59,510.79
	c0-5.307-4.305-9.612-9.611-9.612c-3.043,0-5.725,1.441-7.484,3.649c-2.033-3.38-5.703-5.663-9.934-5.663
	c-4.086,0-7.664,2.114-9.738,5.301c-1.834-2.224-4.574-3.671-7.68-3.671c-5.521,0-9.996,4.477-9.996,9.998
	c0,4.058,2.424,7.532,5.895,9.1c-3.072,1.52-5.207,4.655-5.207,8.317c0,5.142,4.168,9.31,9.309,9.31
	c4.047,0,7.459-2.599,8.738-6.209c1.281,3.577,4.664,6.15,8.68,6.15c4.385,0,8.041-3.062,8.99-7.162
	c0.941,3.793,4.342,6.616,8.424,6.616c4.807,0,8.705-3.897,8.705-8.705c0-3.86-2.529-7.095-6.006-8.234
	C445.66,518.8,448.59,515.157,448.59,510.79z M462.598,510.792c0-3.427-2.777-6.205-6.203-6.205c-3.428,0-6.205,2.778-6.205,6.205
	c0,3.426,2.777,6.206,6.205,6.206C459.82,516.998,462.598,514.217,462.598,510.792z M464.119,493.375
	c0-4.27-3.459-7.727-7.727-7.727s-7.727,3.457-7.727,7.727c0,4.268,3.459,7.727,7.727,7.727S464.119,497.643,464.119,493.375z
	 M483.633,371.455c0,4.193,3.402,7.595,7.596,7.595s7.594-3.401,7.594-7.595s-3.4-7.595-7.594-7.595
	S483.633,367.261,483.633,371.455z M498.689,388.871c0-4.122-3.342-7.461-7.461-7.461c-4.121,0-7.459,3.339-7.459,7.461
	c0,4.121,3.338,7.462,7.459,7.462C495.348,396.333,498.689,392.992,498.689,388.871z M491.229,399.029
	c-4.008,0-7.258,3.253-7.258,7.259c0,4.01,3.25,7.258,7.258,7.258c4.006,0,7.258-3.248,7.258-7.258
	C498.486,402.282,495.234,399.029,491.229,399.029z M498.002,475.958c0-3.743-3.033-6.774-6.773-6.774
	c-3.738,0-6.773,3.031-6.773,6.774c0,3.74,3.035,6.773,6.773,6.773C494.969,482.731,498.002,479.698,498.002,475.958z
	 M498.119,458.541c0-3.81-3.086-6.896-6.891-6.896c-3.807,0-6.891,3.086-6.891,6.896c0,3.808,3.084,6.895,6.891,6.895
	C495.033,465.435,498.119,462.348,498.119,458.541z M499.463,441.123c0-4.548-3.688-8.235-8.234-8.235
	c-4.549,0-8.236,3.688-8.236,8.235c0,4.549,3.688,8.234,8.236,8.234C495.775,449.357,499.463,445.671,499.463,441.123z
	 M499.752,423.708c0-4.711-3.816-8.525-8.523-8.525c-4.705,0-8.523,3.814-8.523,8.525c0,4.705,3.818,8.522,8.523,8.522
	C495.936,432.23,499.752,428.413,499.752,423.708z M501.482,388.871c0,3.955,3.207,7.158,7.162,7.158c3.953,0,7.16-3.203,7.16-7.158
	c0-3.952-3.207-7.157-7.16-7.157C504.689,381.713,501.482,384.918,501.482,388.871z M508.646,399.612c-3.688,0-6.68,2.99-6.68,6.676
	c0,3.689,2.992,6.678,6.68,6.678c3.686,0,6.676-2.988,6.676-6.678C515.322,402.602,512.332,399.612,508.646,399.612z
	 M516.832,441.123c0-4.522-3.668-8.186-8.186-8.186c-4.521,0-8.188,3.663-8.188,8.186c0,4.521,3.666,8.188,8.188,8.188
	C513.164,449.31,516.832,445.644,516.832,441.123z M516.963,423.708c0-4.599-3.723-8.321-8.316-8.321
	c-4.596,0-8.318,3.723-8.318,8.321c0,4.591,3.723,8.319,8.318,8.319C513.24,432.027,516.963,428.298,516.963,423.708z
	 M518.516,423.708c0,4.166,3.381,7.544,7.547,7.544c4.168,0,7.547-3.378,7.547-7.544c0-4.169-3.379-7.548-7.547-7.548
	C521.896,416.16,518.516,419.539,518.516,423.708z M534.43,441.123c0-4.621-3.744-8.367-8.369-8.367
	c-4.621,0-8.365,3.746-8.365,8.367c0,4.62,3.744,8.366,8.365,8.366C530.686,449.489,534.43,445.743,534.43,441.123z
	 M550.699,458.541c0-3.988-3.23-7.221-7.219-7.221c-3.99,0-7.221,3.232-7.221,7.221c0,3.986,3.23,7.219,7.221,7.219
	C547.469,465.759,550.699,462.527,550.699,458.541z M554.717,475.958c0,3.413,2.766,6.179,6.178,6.179
	c3.418,0,6.186-2.766,6.186-6.179c0-3.416-2.768-6.182-6.186-6.182C557.482,469.776,554.717,472.542,554.717,475.958z
	 M554.617,528.208c0,3.467,2.813,6.278,6.277,6.278c3.469,0,6.281-2.812,6.281-6.278s-2.813-6.28-6.281-6.28
	C557.43,521.928,554.617,524.742,554.617,528.208z M554.414,545.625c0,3.579,2.902,6.485,6.486,6.485
	c3.58,0,6.484-2.906,6.484-6.485c0-3.581-2.904-6.484-6.484-6.484C557.316,539.14,554.414,542.043,554.414,545.625z M567.08,580.458
	c0-3.415-2.768-6.18-6.186-6.18c-3.412,0-6.178,2.765-6.178,6.18c0,3.418,2.766,6.186,6.178,6.186
	C564.313,586.643,567.08,583.875,567.08,580.458z M567.393,563.043c0-3.587-2.908-6.497-6.498-6.497
	c-3.584,0-6.492,2.91-6.492,6.497s2.908,6.492,6.492,6.492C564.484,569.536,567.393,566.63,567.393,563.043z M571.869,580.458
	c0,3.56,2.885,6.445,6.445,6.445c3.559,0,6.445-2.886,6.445-6.445c0-3.561-2.887-6.449-6.445-6.449
	C574.754,574.008,571.869,576.897,571.869,580.458z M578.314,609.014c-3.469,0-6.277,2.813-6.277,6.281
	c0,3.467,2.809,6.277,6.277,6.277s6.275-2.811,6.275-6.277C584.59,611.826,581.783,609.014,578.314,609.014z M571.096,632.713
	c0,3.988,3.23,7.221,7.219,7.221s7.219-3.232,7.219-7.221c0-3.992-3.23-7.223-7.219-7.223S571.096,628.721,571.096,632.713z
	 M585.982,650.129c0-4.234-3.432-7.664-7.668-7.664s-7.668,3.43-7.668,7.664c0,4.232,3.432,7.664,7.668,7.664
	S585.982,654.361,585.982,650.129z M412.502,884.775c-1.223,1.244-2.73,2.18-4.404,2.779c2.156,1.332,3.602,3.693,3.602,6.416
	c0,2.451-1.188,4.611-3.002,5.99c1.566,0.629,2.98,1.547,4.154,2.717c0.889-0.893,1.943-1.602,3.074-2.182
	c-1.838-1.588-3.023-3.908-3.023-6.525c0-2.635,1.201-4.967,3.055-6.553C414.65,886.742,413.482,885.859,412.502,884.775z
	 M543.48,783.559c2.377,0,4.414,1.414,5.35,3.439c0.592-2.92,2.25-5.424,4.512-7.195c-1.275-1.242-2.207-2.805-2.75-4.553
	c-1.225,2.717-3.941,4.609-7.111,4.609c-3.281,0-6.08-2.027-7.238-4.893c-0.957,3.334-3.473,5.977-6.732,7.1
	c2.793,1.303,4.738,4.115,4.738,7.398c0,4.521-3.666,8.188-8.188,8.188c-4.51,0-8.168-3.652-8.184-8.164
	c-0.012,5.094-4.139,9.213-9.232,9.213c-2.904,0-5.461-1.363-7.154-3.453c-0.85,1.506-1.996,2.816-3.398,3.822
	c1.504,1.318,2.609,3.053,3.158,5.031c1.129-3,3.998-5.141,7.395-5.141c4.373,0,7.92,3.545,7.92,7.92s-3.547,7.922-7.92,7.922
	c-3.395,0-6.266-2.143-7.393-5.141c-0.703,2.529-2.305,4.668-4.475,6.039c1.926,1.248,3.375,3.123,4.123,5.334
	c1.273-3.02,4.262-5.139,7.746-5.139c2.646,0,4.975,1.246,6.514,3.158c1.803-3.736,5.443-6.367,9.76-6.773
	c-2.498-0.529-4.375-2.746-4.375-5.396c0-3.047,2.471-5.518,5.516-5.518c2.961,0,5.357,2.332,5.492,5.258
	c0.129-5.91,4.535-10.715,10.254-11.523c-2.439-0.727-4.232-2.961-4.232-5.637C537.574,786.205,540.219,783.559,543.48,783.559z
	 M435.674,887.584c-1.893-0.568-3.6-1.564-4.947-2.939c-1.004,1.139-2.207,2.068-3.566,2.773c1.855,1.586,3.057,3.918,3.057,6.553
	c0,2.617-1.188,4.938-3.025,6.525c1.129,0.58,2.186,1.289,3.076,2.182c1.264-1.266,2.82-2.209,4.535-2.834
	c-1.836-1.309-3.047-3.445-3.047-5.873C431.756,891.178,433.355,888.783,435.674,887.584z M491.229,852.586
	c2.396,0,4.473,1.307,5.609,3.229c1.023-3.639,3.629-6.609,7.074-8.047c-1.299-1.02-2.256-2.434-2.693-4.066
	c-0.924,4.678-5.041,8.207-9.99,8.207c-2.9,0-5.506-1.229-7.361-3.176c-0.752,1.076-1.688,2.008-2.738,2.791
	c2.002,1.924,3.258,4.617,3.258,7.613c0,5.838-4.734,10.574-10.576,10.574c-2.998,0-5.693-1.26-7.615-3.268
	c-0.811,1.084-1.76,2.049-2.873,2.809c1.934,1.838,3.156,4.416,3.156,7.299c0,3.596-1.9,6.732-4.736,8.518
	c0.783,0.469,1.506,1.023,2.137,1.674c1.773-2.43,4.383-4.205,7.432-4.832c-2.02-0.945-3.426-2.982-3.426-5.359
	c0-3.273,2.65-5.93,5.926-5.93c2.377,0,4.412,1.408,5.357,3.43c0.932-4.512,4.354-8.074,8.742-9.307
	c-1.922-1.139-3.227-3.213-3.227-5.613C484.684,855.516,487.613,852.586,491.229,852.586z M419.293,799.406
	c-2.041-0.463-3.83-1.535-5.201-3.02c-1.391,1.994-3.363,3.525-5.668,4.4c1.918,1.35,3.18,3.57,3.18,6.098
	c0,2.684-1.432,5.018-3.561,6.332c1.695,0.6,3.23,1.531,4.471,2.783c1.168-1.271,2.572-2.314,4.176-3.006
	c-1.803-1.441-2.98-3.629-2.98-6.113C413.709,803.342,416.07,800.385,419.293,799.406z M418.35,644.555
	c-2.916-0.793-5.416-2.586-7.047-5.039c-1.803,1.9-4.334,3.096-7.16,3.096c-3.682,0-6.857-2.035-8.564-5.016
	c-0.871,1.576-2.135,2.889-3.68,3.811c2.68,1.594,4.537,4.363,4.895,7.607c0.541-3.592,3.609-6.35,7.35-6.35
	c4.119,0,7.461,3.342,7.461,7.465c0,4.121-3.342,7.459-7.461,7.459c-3.74,0-6.809-2.758-7.35-6.348
	c-0.328,2.99-1.912,5.592-4.258,7.232c1.631,1.045,2.936,2.523,3.809,4.266c1.619-2.621,4.49-4.385,7.799-4.385
	c5.074,0,9.188,4.117,9.188,9.189c0,3.449-1.924,6.422-4.738,7.992c2.578,1.223,4.551,3.457,5.443,6.203
	c1.254-2.916,4.148-4.961,7.525-4.961c2.539,0,4.781,1.18,6.281,2.994c0.768-1.639,1.893-3.063,3.264-4.209
	c-2.076-2.041-3.369-4.877-3.369-8.02c0-3.178,1.332-6.037,3.455-8.082c-1.92-1.604-3.334-3.762-3.984-6.256
	c-1.098,2.008-3.199,3.383-5.646,3.383c-3.57,0-6.461-2.891-6.461-6.459C415.1,647.734,416.414,645.668,418.35,644.555z"/>
<path fill="#FF00FF" d="M1686.166,1148.385c0,3.455-2.8,6.254-6.256,6.254c-3.453,0-6.256-2.799-6.256-6.254
	c0-3.457,2.803-6.256,6.256-6.256C1683.366,1142.129,1686.166,1144.928,1686.166,1148.385z M1694.915,1126.861
	c-3.6,0-6.519,2.918-6.519,6.52c0,3.598,2.919,6.518,6.519,6.518c3.601,0,6.519-2.92,6.519-6.518
	C1701.434,1129.779,1698.516,1126.861,1694.915,1126.861z M1728.352,1109.193c1.998-1.182,3.354-3.334,3.354-5.82
	c0-3.746-3.036-6.781-6.783-6.781c-3.744,0-6.78,3.035-6.78,6.781c0,2.486,1.354,4.639,3.354,5.82
	c-2.698,1.004-4.813,3.15-5.79,5.865c-1.156-2.012-3.301-3.383-5.785-3.383c-3.7,0-6.699,3-6.699,6.699s2.999,6.699,6.699,6.699
	c2.484,0,4.629-1.371,5.785-3.383c1.365,3.789,4.958,6.518,9.217,6.518c5.432,0,9.834-4.404,9.834-9.834
	C1734.756,1114.154,1732.086,1110.584,1728.352,1109.193z M1748.594,1088.365c0-4.785-3.879-8.668-8.665-8.668
	s-8.669,3.883-8.669,8.668c0,3.953,2.657,7.246,6.268,8.291c-2.766,0.99-4.756,3.611-4.756,6.717c0,3.951,3.205,7.154,7.157,7.154
	s7.155-3.203,7.155-7.154c0-3.105-1.99-5.727-4.756-6.717C1745.94,1095.611,1748.594,1092.318,1748.594,1088.365z
	 M1754.931,1065.234c-4.487,0-8.126,3.639-8.126,8.129s3.639,8.129,8.126,8.129c4.489,0,8.128-3.639,8.128-8.129
	S1759.42,1065.234,1754.931,1065.234z M1739.929,1078.744c2.971,0,5.381-2.41,5.381-5.381s-2.41-5.381-5.381-5.381
	c-2.972,0-5.381,2.41-5.381,5.381S1736.957,1078.744,1739.929,1078.744z M1769.938,1050.604c-4.281,0-7.754,3.471-7.754,7.754
	c0,4.281,3.473,7.754,7.754,7.754c4.279,0,7.75-3.473,7.75-7.754C1777.688,1054.074,1774.218,1050.604,1769.938,1050.604z
	 M1748.594,1058.357c0,3.504,2.837,6.34,6.337,6.34c3.503,0,6.342-2.836,6.342-6.34c0-3.5-2.839-6.338-6.342-6.338
	C1751.431,1052.02,1748.594,1054.857,1748.594,1058.357z M1784.94,1036.961c-3.529,0-6.393,2.861-6.393,6.393
	c0,3.533,2.863,6.395,6.393,6.395c3.528,0,6.392-2.861,6.392-6.395C1791.332,1039.822,1788.469,1036.961,1784.94,1036.961z
	 M1724.922,1036.879c-3.575,0-6.476,2.898-6.476,6.475c0,3.578,2.9,6.477,6.476,6.477c3.578,0,6.478-2.898,6.478-6.477
	C1731.399,1039.777,1728.5,1036.879,1724.922,1036.879z M1709.92,1037.973c-2.972,0-5.381,2.41-5.381,5.381
	c0,2.973,2.409,5.381,5.381,5.381c2.971,0,5.381-2.408,5.381-5.381C1715.301,1040.383,1712.891,1037.973,1709.92,1037.973z
	 M1700.99,1028.348c0-3.354-2.72-6.072-6.075-6.072s-6.074,2.719-6.074,6.072c0,3.357,2.719,6.076,6.074,6.076
	S1700.99,1031.705,1700.99,1028.348z M1814.949,962.135c-3.425,0-6.199,2.775-6.199,6.199c0,3.422,2.774,6.199,6.199,6.199
	c3.423,0,6.199-2.777,6.199-6.199C1821.148,964.91,1818.372,962.135,1814.949,962.135z M1679.91,962.025
	c-3.483,0-6.309,2.824-6.309,6.309s2.825,6.309,6.309,6.309c3.486,0,6.312-2.824,6.312-6.309S1683.396,962.025,1679.91,962.025z
	 M1589.888,958.016c-5.7,0-10.32,4.619-10.32,10.318c0,5.697,4.62,10.318,10.32,10.318c5.698,0,10.317-4.621,10.317-10.318
	C1600.205,962.635,1595.586,958.016,1589.888,958.016z M1814.949,959.486c3.398,0,6.156-2.756,6.156-6.158
	c0-3.398-2.758-6.154-6.156-6.154c-3.402,0-6.158,2.756-6.158,6.154C1808.791,956.73,1811.547,959.486,1814.949,959.486z
	 M1789.208,961.383c2.34,1.436,3.913,4,3.913,6.951c0,4.518-3.663,8.182-8.181,8.182c-3.302,0-6.13-1.967-7.424-4.783
	c-1.301,2.898-4.196,4.924-7.579,4.924c-3.342,0-6.203-1.98-7.527-4.822c-0.531,1.131-1.316,2.109-2.273,2.891
	c2.561,1.551,4.351,4.191,4.76,7.297c0.588-2.246,2.611-3.912,5.041-3.912c2.886,0,5.227,2.342,5.227,5.23
	c0,2.887-2.341,5.23-5.227,5.23c-2.43,0-4.453-1.668-5.041-3.912c-0.653,4.945-4.841,8.775-9.966,8.775
	c-2.91,0-5.515-1.248-7.358-3.223c-0.193,0.215-0.387,0.432-0.599,0.631c2.005,1.881,3.272,4.533,3.272,7.502
	c0,4.326-2.67,8.021-6.447,9.551c1.706,1.213,2.827,3.195,2.827,5.451c0,3.699-2.998,6.699-6.697,6.699
	c-2.438,0-4.551-1.314-5.723-3.26c-0.896,2.412-2.69,4.367-4.99,5.479c1.913,1.35,3.169,3.568,3.169,6.084
	c0,4.123-3.34,7.465-7.463,7.465c-3.386,0-6.213-2.271-7.125-5.365c-0.93,3.496-4.088,6.086-7.877,6.086
	c-4.522,0-8.186-3.664-8.186-8.182c0-2.508,1.15-4.721,2.925-6.223c-1.329-0.799-2.477-1.859-3.325-3.154
	c-1.571,1.791-3.849,2.941-6.419,2.941c-4.733,0-8.569-3.838-8.569-8.57c0-4.734,3.836-8.572,8.569-8.572
	c2.57,0,4.848,1.156,6.419,2.947c1.429-2.174,3.658-3.762,6.271-4.363c-1.896-0.879-3.221-2.789-3.221-5.014
	c0-3.057,2.479-5.537,5.535-5.537c3.055,0,5.531,2.48,5.531,5.537c0,2.225-1.323,4.135-3.22,5.014
	c2.149,0.492,4.013,1.672,5.413,3.281c0.749-0.814,1.637-1.482,2.617-2.012c-1.925-1.428-3.188-3.699-3.188-6.283
	c0-2.955,1.65-5.496,4.06-6.834c-1.624-0.758-2.976-1.979-3.901-3.496c-1.545,2.412-4.235,4.02-7.312,4.02
	c-4.754,0-8.603-3.816-8.682-8.551c-0.082,3.436-2.874,6.195-6.323,6.195c-3.5,0-6.337-2.838-6.337-6.342
	c0-3.5,2.837-6.336,6.337-6.336c3.449,0,6.241,2.758,6.323,6.189c0.057-3.377,2.043-6.264,4.904-7.652
	c-2.538-1.334-4.288-3.936-4.371-6.979c-0.12,3.691-3.135,6.654-6.856,6.654c-3.8,0-6.878-3.078-6.878-6.879
	c0-3.797,3.078-6.879,6.878-6.879c3.722,0,6.736,2.963,6.856,6.658c0.085-3.17,1.97-5.873,4.674-7.146
	c-2.903-1.326-4.931-4.236-4.931-7.639c0-4.641,3.761-8.406,8.405-8.406c2.578,0,4.857,1.189,6.398,3.016
	c0.973-1.541,2.346-2.787,3.976-3.625c-1.795-1.389-2.971-3.541-2.971-5.988c0-4.195,3.402-7.598,7.599-7.598
	c3.338,0,6.142,2.164,7.164,5.156c1.046-3.357,4.141-5.809,7.843-5.809c3.395,0,6.305,2.053,7.572,4.982
	c0.67-1.521,1.801-2.783,3.205-3.643c-2.924-1.531-4.94-4.559-4.94-8.092c0-3.83,2.35-7.102,5.684-8.475
	c-2.341-1.254-3.95-3.691-3.95-6.527c0-4.107,3.327-7.438,7.432-7.438c4.107,0,7.437,3.33,7.437,7.438
	c0,2.836-1.611,5.273-3.952,6.527c2.849,1.174,4.964,3.736,5.521,6.852c0.718-2.654,3.119-4.617,6.001-4.617
	c3.445,0,6.239,2.793,6.239,6.24c0,3.236-2.47,5.865-5.624,6.178c4.617,0.322,8.274,4.127,8.274,8.824
	c0,3.848-2.459,7.09-5.88,8.328c1.512,0.684,2.733,1.873,3.49,3.342c1.252-3.191,4.241-5.475,7.807-5.748
	c-2.978-0.35-5.295-2.848-5.295-5.922c0-3.309,2.682-5.99,5.991-5.99c3.309,0,5.991,2.682,5.991,5.99
	c0,3.074-2.318,5.572-5.296,5.922c4.724,0.363,8.456,4.266,8.456,9.082C1794.092,956.836,1792.1,959.844,1789.208,961.383z
	 M1689.675,953.328c0,2.896,2.345,5.242,5.24,5.242s5.24-2.346,5.24-5.242c0-2.895-2.345-5.244-5.24-5.244
	S1689.675,950.434,1689.675,953.328z M1679.91,959.002c3.135,0,5.674-2.541,5.674-5.67c0-3.135-2.539-5.674-5.674-5.674
	c-3.132,0-5.671,2.539-5.671,5.674C1674.239,956.461,1676.778,959.002,1679.91,959.002z M1829.951,918.051
	c-2.91,0-5.271,2.361-5.271,5.271s2.36,5.268,5.271,5.268c2.912,0,5.271-2.357,5.271-5.268S1832.863,918.051,1829.951,918.051z
	 M1574.881,929.037c3.158,0,5.715-2.561,5.715-5.715s-2.557-5.715-5.715-5.715c-3.154,0-5.714,2.561-5.714,5.715
	S1571.727,929.037,1574.881,929.037z M1739.929,902.963c-2.957,0-5.354,2.398-5.354,5.354c0,2.959,2.397,5.352,5.354,5.352
	c2.955,0,5.353-2.393,5.353-5.352C1745.281,905.361,1742.884,902.963,1739.929,902.963z M1584.157,908.316
	c0,3.162,2.565,5.727,5.73,5.727c3.162,0,5.727-2.564,5.727-5.727c0-3.164-2.564-5.727-5.727-5.727
	C1586.723,902.59,1584.157,905.152,1584.157,908.316z M1739.929,900.094c3.744,0,6.78-3.035,6.78-6.781
	c0-3.744-3.036-6.779-6.78-6.779c-3.747,0-6.783,3.035-6.783,6.779C1733.146,897.059,1736.182,900.094,1739.929,900.094z
	 M1724.922,887.961c-2.955,0-5.352,2.396-5.352,5.352c0,2.959,2.396,5.354,5.352,5.354c2.957,0,5.354-2.395,5.354-5.354
	C1730.276,890.357,1727.879,887.961,1724.922,887.961z M1739.929,884.033c3.162,0,5.727-2.564,5.727-5.727s-2.564-5.727-5.727-5.727
	c-3.165,0-5.73,2.564-5.73,5.727S1736.764,884.033,1739.929,884.033z M1724.922,872.955c-2.955,0-5.352,2.396-5.352,5.352
	c0,2.959,2.396,5.352,5.352,5.352c2.957,0,5.354-2.393,5.354-5.352C1730.276,875.352,1727.879,872.955,1724.922,872.955z
	 M1739.929,868.975c3.132,0,5.672-2.537,5.672-5.67c0-3.131-2.54-5.67-5.672-5.67c-3.134,0-5.674,2.539-5.674,5.67
	C1734.255,866.438,1736.795,868.975,1739.929,868.975z M1724.922,870.086c3.747,0,6.783-3.037,6.783-6.781s-3.036-6.781-6.783-6.781
	c-3.744,0-6.78,3.037-6.78,6.781S1721.178,870.086,1724.922,870.086z M1814.949,843.076c-2.89,0-5.23,2.34-5.23,5.227
	c0,2.885,2.341,5.225,5.23,5.225c2.886,0,5.226-2.34,5.226-5.225C1820.175,845.416,1817.835,843.076,1814.949,843.076z
	 M1799.942,843.031c-2.91,0-5.271,2.361-5.271,5.271s2.36,5.266,5.271,5.266c2.912,0,5.271-2.355,5.271-5.266
	S1802.854,843.031,1799.942,843.031z M1739.929,853.971c3.132,0,5.672-2.539,5.672-5.668c0-3.135-2.54-5.674-5.672-5.674
	c-3.134,0-5.674,2.539-5.674,5.674C1734.255,851.432,1736.795,853.971,1739.929,853.971z M1724.922,854.887
	c3.639,0,6.59-2.945,6.59-6.584s-2.951-6.59-6.59-6.59s-6.585,2.951-6.585,6.59S1721.283,854.887,1724.922,854.887z
	 M1754.931,839.287c3.31,0,5.991-2.684,5.991-5.992s-2.682-5.99-5.991-5.99c-3.307,0-5.989,2.682-5.989,5.99
	S1751.624,839.287,1754.931,839.287z M1837.913,818.293c0,4.396-3.563,7.961-7.962,7.961c-2.637,0-4.961-1.299-6.408-3.277
	c-1.144,2.094-3.006,3.717-5.276,4.535c2.011,1.156,3.38,3.301,3.38,5.783c0,3.699-2.998,6.699-6.697,6.699
	c-3.7,0-6.699-3-6.699-6.699c0-2.482,1.369-4.627,3.382-5.783c-3.791-1.367-6.517-4.957-6.517-9.219c0-2.85,1.229-5.393,3.167-7.188
	c-0.401-0.342-0.771-0.709-1.115-1.107c-1.805,1.945-4.361,3.178-7.225,3.178c-2.861,0-5.417-1.232-7.225-3.178
	c-0.235,0.273-0.468,0.545-0.732,0.793c2.005,1.881,3.272,4.535,3.272,7.502c0,5.697-4.619,10.318-10.317,10.318
	c-3,0-5.678-1.303-7.564-3.346c-1.386,1.477-3.193,2.551-5.247,2.998c1.939,0.848,3.299,2.781,3.299,5.031
	c0,3.037-2.458,5.494-5.49,5.494c-3.034,0-5.494-2.457-5.494-5.494c0-2.25,1.359-4.184,3.301-5.031
	c-4.59-1.004-8.028-5.082-8.028-9.971c0-2.943,1.26-5.572,3.25-7.439c-0.662-0.611-1.244-1.295-1.73-2.061
	c-1.538,1.762-3.776,2.902-6.305,2.902c-2.523,0-4.762-1.141-6.304-2.902c-0.656,1.033-1.496,1.93-2.467,2.67
	c1.859,1.697,3.046,4.115,3.046,6.83c0,4.139-2.729,7.604-6.474,8.799c2.365,1.07,4.018,3.439,4.018,6.207
	c0,3.77-3.053,6.822-6.821,6.822s-6.825-3.053-6.825-6.822c0-2.768,1.652-5.137,4.017-6.207c-2.332-0.744-4.245-2.369-5.37-4.5
	c-1.15,1.822-2.994,3.162-5.176,3.617c3.232,0.75,5.644,3.631,5.644,7.09c0,4.029-3.267,7.295-7.296,7.295
	c-4.027,0-7.293-3.266-7.293-7.295c0-3.459,2.413-6.34,5.641-7.09c-3.671-0.766-6.431-4.018-6.431-7.916
	c0-3.77,2.589-6.912,6.081-7.807c-3.165-0.879-5.499-3.752-5.499-7.195c0-4.145,3.357-7.506,7.501-7.506
	c2.377,0,4.469,1.127,5.843,2.85c0.55-1.08,1.264-2.049,2.139-2.865c-1.264-1.189-2.197-2.691-2.737-4.381
	c-1.066,1.795-3.003,3.012-5.244,3.012c-3.378,0-6.117-2.738-6.117-6.117c0-3.375,2.739-6.113,6.117-6.113
	c2.241,0,4.178,1.215,5.244,3.01c1.016-3.188,3.515-5.676,6.71-6.672c-1.799-1.057-3.022-2.99-3.022-5.227
	c0-3.357,2.719-6.076,6.075-6.076c2.857,0,5.236,1.982,5.884,4.639c0.693-4.428,4.495-7.828,9.118-7.828
	c2.713,0,5.129,1.186,6.824,3.043c1.884-2.475,4.831-4.096,8.183-4.096c2.965,0,5.619,1.266,7.501,3.271
	c1.12-1.191,2.516-2.094,4.089-2.648c-1.748-1.125-2.91-3.076-2.91-5.311c0-3.492,2.831-6.322,6.323-6.322
	c3.35,0,6.06,2.609,6.28,5.904c0.224-4.643,4.025-8.346,8.722-8.346c2.801,0,5.265,1.338,6.87,3.381
	c1.746-2.637,4.736-4.379,8.137-4.379c3.911,0,7.263,2.316,8.82,5.643c1.332-1.996,3.602-3.314,6.182-3.314
	c4.107,0,7.437,3.33,7.437,7.434c0,2.363-1.125,4.447-2.847,5.807c1.943,0.973,3.519,2.527,4.523,4.453
	c1.393-1.729,3.5-2.857,5.894-2.857c4.196,0,7.599,3.402,7.599,7.604c0,4.197-3.402,7.6-7.599,7.6c-2.394,0-4.501-1.129-5.894-2.854
	c-1.111,2.125-2.904,3.838-5.133,4.77c1.702,1.238,2.817,3.227,2.817,5.486c0,3.754-3.043,6.797-6.798,6.797
	c-3.752,0-6.795-3.043-6.795-6.797c0-2.26,1.117-4.248,2.814-5.486c-1.361-0.57-2.556-1.438-3.549-2.502
	c-1.872,1.998-4.518,3.264-7.473,3.264c-2.957,0-5.601-1.266-7.477-3.264c-0.991,1.064-2.186,1.932-3.55,2.502
	c1.702,1.238,2.816,3.227,2.816,5.486c0,2.463-1.32,4.596-3.278,5.789c1.427,0.545,2.687,1.406,3.708,2.506
	c1.891-2.193,4.656-3.609,7.78-3.609c4.758,0,8.727,3.24,9.917,7.623c0.971-1.828,2.871-3.086,5.085-3.086
	c3.195,0,5.784,2.59,5.784,5.781c0,3.193-2.589,5.783-5.784,5.783c-2.214,0-4.114-1.258-5.085-3.086
	c-0.552,2.031-1.697,3.793-3.25,5.121c0.775,0.721,1.416,1.566,1.927,2.506c1.449-1.977,3.771-3.279,6.408-3.279
	C1834.35,810.332,1837.913,813.896,1837.913,818.293z M1796.426,794.072c-1.957-1.193-3.278-3.326-3.278-5.789
	c0-2.26,1.117-4.248,2.814-5.486c-1.347-0.563-2.533-1.42-3.521-2.471c-1.097,1.168-2.461,2.063-3.997,2.619
	c1.738,1.143,2.888,3.104,2.888,5.338s-1.149,4.197-2.888,5.338c1.677,0.609,3.132,1.633,4.273,2.957
	C1793.74,795.479,1794.999,794.617,1796.426,794.072z M1634.899,811.955c-3.503,0-6.342,2.838-6.342,6.338s2.839,6.338,6.342,6.338
	c3.5,0,6.337-2.838,6.337-6.338S1638.399,811.955,1634.899,811.955z M1844.958,797.727c-3.073,0-5.563,2.49-5.563,5.561
	c0,3.072,2.49,5.563,5.563,5.563c3.071,0,5.56-2.49,5.56-5.563C1850.518,800.217,1848.029,797.727,1844.958,797.727z
	 M1652.948,795.098c2.606-1.166,4.431-3.771,4.431-6.814c0-4.127-3.346-7.475-7.478-7.475c-3.301,0-6.07,2.156-7.062,5.125
	c-1.018-3.441-4.168-5.969-7.94-5.969c-4.598,0-8.323,3.725-8.323,8.318c0,4.596,3.726,8.324,8.323,8.324
	c3.772,0,6.923-2.527,7.94-5.971c0.666,1.99,2.118,3.611,4.018,4.461c-3.334,1.24-5.719,4.424-5.719,8.189
	c0,4.842,3.924,8.766,8.763,8.766c4.842,0,8.768-3.924,8.768-8.766C1658.669,799.521,1656.281,796.338,1652.948,795.098z
	 M1634.899,808.932c3.117,0,5.645-2.523,5.645-5.645c0-3.119-2.527-5.643-5.645-5.643c-3.118,0-5.646,2.523-5.646,5.643
	C1629.254,806.408,1631.781,808.932,1634.899,808.932z M1859.961,778.646c-4.388,0-8.049,2.949-9.215,6.963
	c-1.014-2.189-3.216-3.717-5.788-3.717c-3.532,0-6.394,2.863-6.394,6.391c0,3.531,2.861,6.395,6.394,6.395
	c2.57,0,4.774-1.527,5.788-3.719c0.932,3.209,3.459,5.705,6.688,6.584c-2.211,0.977-3.755,3.18-3.755,5.748
	c0,3.467,2.813,6.279,6.282,6.279s6.282-2.813,6.282-6.279c0-2.568-1.545-4.771-3.755-5.748c4.088-1.115,7.11-4.814,7.11-9.26
	C1869.599,782.963,1865.284,778.646,1859.961,778.646z M1640.17,773.281c0-2.91-2.36-5.271-5.271-5.271
	c-2.912,0-5.271,2.361-5.271,5.271s2.359,5.27,5.271,5.27C1637.81,778.551,1640.17,776.191,1640.17,773.281z M1626.246,773.281
	c0,3.508-2.843,6.35-6.352,6.35c-2.448,0-4.544-1.396-5.606-3.424c-0.517,1.666-1.44,3.139-2.687,4.299
	c2.191,1.893,3.608,4.656,3.608,7.777c0,5.699-4.62,10.318-10.319,10.318c-2.966,0-5.619-1.266-7.502-3.27
	c-1.883,2.004-4.536,3.27-7.501,3.27c-5.7,0-10.32-4.619-10.32-10.318c0-3.609,1.862-6.775,4.671-8.619
	c-1.771-1.568-2.91-3.832-2.91-6.383c0-4.725,3.832-8.557,8.56-8.557c2.715,0,5.108,1.289,6.675,3.264
	c1.754-2.756,4.819-4.598,8.328-4.598c4.436,0,8.144,2.941,9.397,6.965c1.063-2.027,3.158-3.428,5.606-3.428
	C1623.403,766.928,1626.246,769.773,1626.246,773.281z M1664.908,752.549c-2.854,0-5.201,2.09-5.637,4.818
	c-0.465-4.791-4.457-8.547-9.37-8.547c-3.954,0-7.334,2.43-8.746,5.877c-1.25-2.178-3.567-3.66-6.256-3.66
	c-3.999,0-7.241,3.24-7.241,7.238c0,4,3.242,7.24,7.241,7.24c2.688,0,5.008-1.482,6.256-3.66c1.412,3.447,4.792,5.879,8.746,5.879
	c4.913,0,8.905-3.76,9.37-8.551c0.436,2.73,2.783,4.82,5.637,4.82c3.162,0,5.727-2.564,5.727-5.729
	S1668.07,752.549,1664.908,752.549z M1619.895,763.574c2.925,0,5.297-2.373,5.297-5.299s-2.372-5.297-5.297-5.297
	c-2.924,0-5.297,2.371-5.297,5.297S1616.971,763.574,1619.895,763.574z M1454.849,752.104c-3.406,0-6.17,2.764-6.17,6.172
	c0,3.41,2.764,6.172,6.17,6.172c3.409,0,6.171-2.762,6.171-6.172C1461.02,754.867,1458.258,752.104,1454.849,752.104z
	 M1844.958,737.461c-3.211,0-5.812,2.6-5.812,5.811c0,3.213,2.601,5.813,5.812,5.813c3.209,0,5.813-2.6,5.813-5.813
	C1850.771,740.061,1848.167,737.461,1844.958,737.461z M1619.895,736.895c-3.522,0-6.38,2.855-6.38,6.377
	c0,3.523,2.857,6.379,6.38,6.379s6.38-2.855,6.38-6.379C1626.274,739.75,1623.417,736.895,1619.895,736.895z M1598.012,743.271
	c0,3.801,3.081,6.879,6.879,6.879c3.801,0,6.88-3.078,6.88-6.879c0-3.799-3.079-6.877-6.88-6.877
	C1601.093,736.395,1598.012,739.473,1598.012,743.271z M1584.006,743.271c0,3.248,2.634,5.883,5.882,5.883s5.881-2.635,5.881-5.883
	s-2.633-5.881-5.881-5.881S1584.006,740.023,1584.006,743.271z M1454.849,748.625c2.957,0,5.353-2.398,5.353-5.354
	s-2.396-5.352-5.353-5.352c-2.956,0-5.352,2.396-5.352,5.352S1451.893,748.625,1454.849,748.625z M1844.958,721.346
	c-3.821,0-6.921,3.1-6.921,6.922s3.1,6.922,6.921,6.922c3.822,0,6.919-3.1,6.919-6.922S1848.78,721.346,1844.958,721.346z
	 M1829.951,707.994c-2.91,0-5.271,2.359-5.271,5.27s2.36,5.27,5.271,5.27c2.912,0,5.271-2.359,5.271-5.27
	S1832.863,707.994,1829.951,707.994z M1439.847,705.982c-4.021,0-7.281,3.26-7.281,7.281s3.26,7.281,7.281,7.281
	s7.281-3.26,7.281-7.281S1443.868,705.982,1439.847,705.982z M1424.84,707.453c-3.209,0-5.812,2.604-5.812,5.811
	c0,3.211,2.603,5.813,5.812,5.813c3.212,0,5.813-2.602,5.813-5.813C1430.652,710.057,1428.052,707.453,1424.84,707.453z
	 M1829.951,703.516c2.904,0,5.259-2.354,5.259-5.254c0-2.902-2.354-5.258-5.259-5.258c-2.901,0-5.254,2.355-5.254,5.258
	C1824.697,701.162,1827.05,703.516,1829.951,703.516z M1454.849,692.588c-3.132,0-5.671,2.539-5.671,5.674
	c0,3.131,2.539,5.67,5.671,5.67c3.135,0,5.674-2.539,5.674-5.67C1460.522,695.127,1457.983,692.588,1454.849,692.588z
	 M1829.951,688.514c2.904,0,5.259-2.355,5.259-5.26c0-2.902-2.354-5.254-5.259-5.254c-2.901,0-5.254,2.352-5.254,5.254
	C1824.697,686.158,1827.05,688.514,1829.951,688.514z M1454.849,677.141c-3.378,0-6.115,2.738-6.115,6.113
	c0,3.379,2.737,6.117,6.115,6.117c3.379,0,6.116-2.738,6.116-6.117C1460.965,679.879,1458.228,677.141,1454.849,677.141z
	 M1469.854,646.896c-3.509,0-6.352,2.842-6.352,6.352c0,3.508,2.843,6.352,6.352,6.352s6.352-2.844,6.352-6.352
	C1476.205,649.738,1473.362,646.896,1469.854,646.896z M1499.86,617.512c-3.162,0-5.727,2.564-5.727,5.729
	c0,3.162,2.564,5.727,5.727,5.727c3.165,0,5.731-2.564,5.731-5.727C1505.592,620.076,1503.025,617.512,1499.86,617.512z
	 M1499.86,602.16c-3.354,0-6.072,2.721-6.072,6.076s2.719,6.074,6.072,6.074c3.356,0,6.075-2.719,6.075-6.074
	S1503.217,602.16,1499.86,602.16z M1514.867,587.061c-3.411,0-6.175,2.761-6.175,6.17c0,3.409,2.764,6.17,6.175,6.17
	c3.406,0,6.17-2.761,6.17-6.17C1521.037,589.822,1518.273,587.061,1514.867,587.061z M1679.91,557.87
	c-4.482,0-8.219-3.073-9.304-7.216c-0.946,2.214-3.141,3.765-5.698,3.765c-3.425,0-6.199-2.776-6.199-6.199
	c0-2.23,1.185-4.168,2.951-5.259c-1.742-0.582-3.265-1.595-4.453-2.938c-1.037,1.111-2.317,1.978-3.767,2.528
	c1.891,1.184,3.16,3.272,3.16,5.669c0,3.7-2.999,6.697-6.699,6.697c-3.699,0-6.697-2.998-6.697-6.697
	c0-2.397,1.268-4.485,3.16-5.669c-1.771-0.672-3.284-1.828-4.411-3.309c-1.143,1.335-2.642,2.328-4.363,2.849
	c2.356,1.038,4.007,3.386,4.007,6.129c0,3.7-2.998,6.697-6.697,6.697c-3.7,0-6.7-2.998-6.7-6.697c0-2.743,1.65-5.092,4.01-6.129
	c-1.656-0.501-3.105-1.431-4.231-2.687c-1.435,1.87-3.476,3.24-5.854,3.773c1.938,0.855,3.293,2.788,3.293,5.043
	c0,3.048-2.473,5.519-5.521,5.519s-5.521-2.471-5.521-5.519c0-2.255,1.355-4.188,3.293-5.043c-2.037-0.456-3.832-1.522-5.21-2.992
	c-1.886,2.043-4.563,3.346-7.565,3.346c-3.497,0-6.574-1.748-8.442-4.408c-1.622,1.799-3.947,2.953-6.561,2.953
	c-3.61,0-6.704-2.165-8.085-5.26c-1.307,2.507-3.897,4.237-6.922,4.237c-3.008,0-5.592-1.718-6.902-4.208
	c-1.393,3.097-4.487,5.261-8.1,5.261c-2.829,0-5.32-1.345-6.948-3.405c-1.754,2.572-4.707,4.266-8.057,4.266
	c-2.829,0-5.354-1.225-7.137-3.15c-0.401,0.48-0.839,0.914-1.319,1.311c1.913,1.771,3.133,4.282,3.133,7.094
	c0,4.855-3.586,8.838-8.246,9.536c2.434,0.639,4.238,2.833,4.238,5.466c0,3.134-2.539,5.674-5.674,5.674
	c-2.218,0-4.116-1.286-5.051-3.142c-0.682,2.686-2.409,4.933-4.733,6.309c1.754,1.488,2.894,3.684,2.894,6.164
	c0,4.479-3.63,8.114-8.111,8.114c-2.698,0-5.071-1.331-6.545-3.355c-1.151,2.045-3,3.616-5.246,4.406
	c2.067,1.14,3.483,3.313,3.483,5.84c0,3.7-2.999,6.7-6.699,6.7c-3.699,0-6.697-3-6.697-6.7c0-2.527,1.417-4.701,3.482-5.84
	c-1.515-0.533-2.852-1.408-3.92-2.562c-0.761,0.907-1.663,1.675-2.69,2.277c1.746,1.478,2.878,3.659,2.878,6.125
	c0,3.085-1.75,5.731-4.296,7.086c2.969,1.413,5.032,4.411,5.032,7.917c0,3.305-1.844,6.148-4.54,7.65
	c2.546,1.479,4.275,4.201,4.275,7.355c0,4.104-2.897,7.523-6.756,8.34c2.959,0.785,5.148,3.455,5.148,6.662
	c0,3.822-3.098,6.92-6.919,6.92c-3.822,0-6.922-3.098-6.922-6.92c0-3.207,2.192-5.877,5.151-6.662
	c-2.225-0.471-4.125-1.807-5.34-3.639c-0.898,1.502-2.202,2.715-3.771,3.508c2.302,1.396,3.853,3.904,3.853,6.793
	c0,4.404-3.569,7.975-7.976,7.975c-2.865,0-5.358-1.523-6.765-3.793c-0.954,1.875-2.501,3.385-4.422,4.256
	c2.269,1.322,3.81,3.754,3.81,6.568c0,4.211-3.415,7.629-7.628,7.629c-2.401,0-4.518-1.135-5.915-2.869
	c-0.655,1.248-1.549,2.336-2.638,3.215c0.989,0.91,1.801,2.002,2.34,3.256c1.28-2.104,3.572-3.52,6.213-3.52
	c4.03,0,7.296,3.264,7.296,7.293s-3.266,7.293-7.296,7.293c-2.641,0-4.933-1.416-6.213-3.52c-0.86,2.006-2.407,3.621-4.324,4.641
	c2.108,1.434,3.494,3.85,3.494,6.588c0,3.807-2.672,6.977-6.237,7.762c3.284,0.781,5.738,3.719,5.738,7.246
	c0,4.117-3.341,7.459-7.46,7.459c-2.967,0-5.505-1.742-6.708-4.248c-1.294,3.332-4.51,5.705-8.299,5.705
	c-4.925,0-8.917-3.992-8.917-8.916c0-2.65,1.178-5.004,3.012-6.635c-1.677-1.188-2.963-2.863-3.688-4.824
	c-1.158,1.764-3.145,2.93-5.409,2.93c-3.578,0-6.476-2.9-6.476-6.479c0-3.576,2.897-6.475,6.476-6.475
	c2.265,0,4.251,1.168,5.409,2.926c0.558-1.504,1.442-2.836,2.591-3.916c-0.859-0.797-1.562-1.744-2.111-2.791
	c-1.392,1.725-3.498,2.854-5.889,2.854c-4.198,0-7.6-3.404-7.6-7.6c0-4.197,3.401-7.6,7.6-7.6c2.391,0,4.497,1.127,5.889,2.854
	c0.542-1.029,1.226-1.965,2.068-2.756c-1.337-1.258-2.313-2.865-2.831-4.676c-1.003,1.811-2.908,3.055-5.126,3.055
	c-3.248,0-5.88-2.633-5.88-5.881s2.632-5.883,5.88-5.883c2.218,0,4.123,1.244,5.126,3.055c0.519-1.811,1.492-3.418,2.831-4.676
	c-2.005-1.881-3.272-4.535-3.272-7.502c0-2.965,1.27-5.619,3.272-7.5c-2.003-1.883-3.272-4.537-3.272-7.502
	c0-2.967,1.27-5.621,3.272-7.504c-2.003-1.881-3.272-4.535-3.272-7.502c0-2.963,1.268-5.617,3.272-7.502
	c-2.005-1.88-3.272-4.534-3.272-7.501c0-2.967,1.268-5.621,3.272-7.501c-2.005-1.884-3.272-4.538-3.272-7.503
	c0-3.311,1.587-6.221,4.009-8.109c-1.872-1.716-3.064-4.156-3.064-6.895c0-5.177,4.196-9.375,9.373-9.375
	c2.739,0,5.182,1.195,6.895,3.067c0.33-0.423,0.676-0.826,1.064-1.192c-2.004-1.883-3.272-4.536-3.272-7.501
	c0-3.048,1.346-5.757,3.446-7.646c-1.975-1.842-3.224-4.447-3.224-7.361c0-5.576,4.52-10.094,10.098-10.094
	c2.91,0,5.515,1.25,7.358,3.222c0.195-0.218,0.387-0.429,0.599-0.629c-2.003-1.882-3.272-4.536-3.272-7.501
	c0-5.698,4.62-10.317,10.317-10.317c2.968,0,5.621,1.268,7.502,3.272c0.148-0.159,0.299-0.31,0.456-0.456
	c-2.003-1.884-3.271-4.538-3.271-7.503c0-5.7,4.619-10.32,10.317-10.32c2.965,0,5.619,1.27,7.503,3.272
	c0.146-0.157,0.298-0.307,0.456-0.456c-2.004-1.88-3.272-4.534-3.272-7.501c0-5.698,4.62-10.318,10.318-10.318
	c2.965,0,5.618,1.266,7.501,3.271c0.146-0.157,0.297-0.307,0.456-0.454c-2.005-1.885-3.272-4.539-3.272-7.501
	c0-5.698,4.619-10.318,10.317-10.318c2.968,0,5.621,1.266,7.504,3.271c0.148-0.157,0.299-0.308,0.455-0.456
	c-2.004-1.882-3.272-4.536-3.272-7.503c0-5.698,4.62-10.318,10.32-10.318c2.965,0,5.619,1.27,7.501,3.272
	c1.883-2.002,4.536-3.272,7.501-3.272c2.968,0,5.621,1.27,7.502,3.272c0.181-0.191,0.37-0.367,0.565-0.545
	c-1.984-1.856-3.242-4.481-3.242-7.412c0-5.623,4.557-10.179,10.18-10.179c2.933,0,5.556,1.258,7.414,3.24
	c1.884-2.063,4.574-3.378,7.591-3.378c2.965,0,5.618,1.266,7.501,3.27c1.883-2.004,4.536-3.27,7.501-3.27
	c2.967,0,5.621,1.266,7.504,3.27c1.882-2.004,4.536-3.27,7.503-3.27c2.965,0,5.619,1.266,7.501,3.27
	c1.248-1.329,2.841-2.297,4.641-2.818c-1.81-1.009-3.047-2.92-3.047-5.139c0-3.262,2.646-5.908,5.908-5.908
	c3.264,0,5.909,2.646,5.909,5.908c0,2.218-1.237,4.129-3.044,5.139c1.795,0.521,3.39,1.49,4.638,2.818
	c0.796-0.849,1.739-1.536,2.782-2.078c-1.727-1.388-2.854-3.492-2.854-5.879c0-4.182,3.391-7.572,7.572-7.572
	c3.085,0,5.729,1.852,6.909,4.498c1.245-3.271,4.386-5.607,8.096-5.607c4.794,0,8.682,3.887,8.682,8.682
	c0,2.57-1.14,4.858-2.917,6.445c0.642,0.431,1.209,0.952,1.736,1.512c1.6-1.703,3.769-2.833,6.209-3.14
	c-2.135-0.574-3.714-2.503-3.714-4.817c0-2.766,2.242-5.006,5.006-5.006c2.766,0,5.007,2.241,5.007,5.006
	c0,2.314-1.58,4.243-3.712,4.817c2.438,0.308,4.606,1.437,6.209,3.14c1.882-2.004,4.536-3.27,7.503-3.27
	c3.237,0,6.093,1.522,7.985,3.856c1.748-1.899,4.233-3.108,7.017-3.108c2.786,0,5.271,1.209,7.021,3.108
	c1.891-2.334,4.746-3.856,7.983-3.856c4.895,0,8.973,3.415,10.031,7.989c0.879-1.872,2.768-3.179,4.974-3.179
	c3.04,0,5.505,2.467,5.505,5.507c0,2.206-1.305,4.095-3.179,4.974c2.021,0.466,3.803,1.522,5.175,2.983
	c1.882-2.002,4.536-3.272,7.501-3.272c5.7,0,10.32,4.62,10.32,10.318c0,2.967-1.269,5.621-3.272,7.503
	c0.156,0.148,0.307,0.299,0.456,0.456c1.882-2.004,4.536-3.271,7.503-3.271c5.698,0,10.317,4.62,10.317,10.318
	c0,2.963-1.268,5.617-3.272,7.501c0.159,0.146,0.31,0.297,0.456,0.454c1.883-2.004,4.536-3.271,7.502-3.271
	c2.967,0,5.62,1.266,7.503,3.271c1.882-2.004,4.536-3.271,7.503-3.271c5.698,0,10.318,4.62,10.318,10.318
	c0,2.967-1.269,5.621-3.272,7.501c0.158,0.148,0.309,0.299,0.455,0.456c1.883-2.002,4.536-3.272,7.502-3.272
	c5.698,0,10.317,4.62,10.317,10.32c0,2.965-1.268,5.619-3.272,7.503c0.159,0.146,0.31,0.297,0.456,0.454
	c1.883-2.004,4.536-3.27,7.501-3.27c5.7,0,10.32,4.62,10.32,10.317c0,2.965-1.269,5.619-3.272,7.501
	c0.171,0.161,0.331,0.328,0.49,0.5c1.874-1.998,4.516-3.26,7.469-3.26c5.666,0,10.261,4.595,10.261,10.261
	c0,2.955-1.262,5.596-3.261,7.468c2.029,1.883,3.317,4.551,3.317,7.538c0,2.965-1.27,5.619-3.272,7.501
	c1.15,1.078,2.037,2.416,2.597,3.923c1.156-1.73,3.126-2.87,5.36-2.87c3.562,0,6.449,2.886,6.449,6.447
	c0,2.236-1.14,4.205-2.867,5.36c3.928,1.461,6.738,5.21,6.738,9.644c0,2.965-1.268,5.619-3.271,7.503
	c2.003,1.88,3.271,4.534,3.271,7.501c0,2.967-1.268,5.621-3.271,7.501c0.171,0.163,0.33,0.328,0.49,0.5
	c1.872-1.996,4.514-3.259,7.467-3.259c5.666,0,10.261,4.595,10.261,10.261c0,2.955-1.264,5.596-3.26,7.469
	c2.028,1.883,3.316,4.549,3.316,7.537c0,2.965-1.27,5.619-3.271,7.502c2.002,1.881,3.271,4.535,3.271,7.5
	c0,2.967-1.268,5.621-3.271,7.502c2.004,1.885,3.271,4.537,3.271,7.504c0,3.123-1.416,5.887-3.607,7.779
	c1.142,1.059,2.017,2.381,2.556,3.875c1.158-1.979,3.28-3.322,5.737-3.322c3.684,0,6.671,2.988,6.671,6.672s-2.987,6.67-6.671,6.67
	c-2.457,0-4.579-1.342-5.737-3.32c-0.682,1.881-1.896,3.492-3.488,4.645c1.354,1.117,2.363,2.6,2.896,4.314
	c1.05-2.459,3.487-4.186,6.329-4.186c3.797,0,6.878,3.082,6.878,6.879c0,3.799-3.081,6.879-6.878,6.879
	c-2.842,0-5.279-1.725-6.329-4.182c-0.688,2.215-2.182,4.055-4.16,5.191c2.356,1.498,3.932,4.117,3.932,7.119
	c0,3.91-2.674,7.168-6.28,8.129c2.933,0.926,5.074,3.635,5.074,6.873c0,3.998-3.242,7.24-7.239,7.24c-3.999,0-7.24-3.242-7.24-7.24
	c0-3.238,2.141-5.947,5.075-6.873c-3.61-0.961-6.28-4.219-6.28-8.129c0-3.002,1.575-5.621,3.932-7.119
	c-2.743-1.574-4.613-4.498-4.613-7.889c0-2.832,1.32-5.334,3.348-7.008c-2.099-1.521-3.556-3.838-3.96-6.516
	c-0.649,2.311-2.748,4.014-5.268,4.014c-3.032,0-5.49-2.461-5.49-5.492c0-3.033,2.458-5.492,5.49-5.492
	c2.52,0,4.618,1.703,5.268,4.012c0.342-2.26,1.428-4.258,3.027-5.744c-1.453-1.254-2.533-2.891-3.109-4.77
	c-1.042,1.791-2.963,3.01-5.186,3.01c-3.323,0-6.02-2.697-6.02-6.02c0-3.324,2.696-6.021,6.02-6.021
	c2.223,0,4.144,1.221,5.186,3.012c0.533-1.738,1.481-3.281,2.771-4.494c-0.802-0.754-1.457-1.639-1.985-2.613
	c-1.421,1.734-3.554,2.863-5.972,2.863c-4.279,0-7.749-3.469-7.749-7.752c0-2.418,1.127-4.549,2.861-5.971
	c-2.677-1.451-4.65-4.018-5.234-7.105c-0.771,1.947-2.662,3.328-4.88,3.328c-2.904,0-5.259-2.352-5.259-5.254
	s2.354-5.256,5.259-5.256c2.218,0,4.108,1.381,4.88,3.326c0.413-2.186,1.519-4.111,3.077-5.574
	c-2.003-1.881-3.272-4.535-3.272-7.502c0-2.963,1.268-5.617,3.272-7.502c-0.159-0.146-0.31-0.297-0.456-0.454
	c-1.882,2.004-4.536,3.27-7.501,3.27c-4.925,0-9.025-3.451-10.058-8.063c-0.858,1.881-2.745,3.195-4.949,3.195
	c-3.008,0-5.45-2.44-5.45-5.45c0-2.202,1.315-4.09,3.197-4.949c-2.051-0.46-3.858-1.53-5.248-3.008
	c-1.883,2.003-4.536,3.272-7.501,3.272c-3.169,0-5.967-1.459-7.859-3.708c-1.783,1.925-4.313,3.15-7.144,3.15
	c-3.848,0-7.143-2.243-8.734-5.479c-1.367,2.003-3.663,3.317-6.272,3.317c-4.101,0-7.419-3.258-7.57-7.322
	c-0.148,3.989-3.406,7.184-7.432,7.184c-4.123,0-7.463-3.342-7.463-7.463c0-2.369,1.126-4.455,2.848-5.822
	c-1.087-0.545-2.063-1.257-2.888-2.135c-1.364,1.451-3.133,2.501-5.139,2.973c1.868,0.888,3.17,2.778,3.17,4.984
	c0,3.055-2.479,5.534-5.535,5.534c-3.055,0-5.531-2.479-5.531-5.534c0-2.206,1.299-4.096,3.167-4.984
	c-3.057-0.72-5.568-2.796-6.903-5.563c-1.335,1.717-3.395,2.839-5.734,2.839c-4.029,0-7.296-3.267-7.296-7.296
	c0-2.34,1.121-4.4,2.837-5.735c-1.154-0.558-2.188-1.309-3.055-2.234c-1.879,2.002-4.53,3.271-7.491,3.271
	c-3.205,0-6.032-1.494-7.923-3.79C1685.23,556.649,1682.723,557.87,1679.91,557.87z"/>
</svg>
